<?xml version="1.0" encoding="UTF-8" standalone="no"?>
<svg viewBox="0 0 1200 900"
 xmlns="http://www.w3.org/2000/svg" xmlns:xlink="http://www.w3.org/1999/xlink"  version="1.2" baseProfile="tiny">
<title>Qt SVG Document</title>
<desc>Generated with Qt</desc>
<defs>
</defs>
<g fill="none" stroke="black" stroke-width="1" fill-rule="evenodd" stroke-linecap="square" stroke-linejoin="bevel" >

<g fill="#ffffff" fill-opacity="1" stroke="none" transform="matrix(1,0,0,1,0,0)"
font-family="Ubuntu" font-size="12.2222" font-weight="400" font-style="normal" 
>
<rect x="0" y="0" width="1200" height="900"/>
</g>

<g fill="none" stroke="#000000" stroke-opacity="1" stroke-width="1" stroke-linecap="square" stroke-linejoin="bevel" transform="matrix(1,0,0,1,0,0)"
font-family="Ubuntu" font-size="12.2222" font-weight="400" font-style="normal" 
>
</g>

<g fill="none" stroke="#000000" stroke-opacity="1" stroke-width="1" stroke-linecap="square" stroke-linejoin="bevel" transform="matrix(0.416667,0,0,0.416667,0,0)"
font-family="Ubuntu" font-size="12.2222" font-weight="400" font-style="normal" 
>
</g>

<g fill="#ffffff" fill-opacity="1" stroke="none" transform="matrix(0.416667,0,0,0.416667,0,0)"
font-family="Ubuntu" font-size="12.2222" font-weight="400" font-style="normal" 
>
<rect x="47" y="0" width="2832" height="2122"/>
</g>

<g fill="none" stroke="#000000" stroke-opacity="1" stroke-width="1" stroke-linecap="square" stroke-linejoin="bevel" transform="matrix(0.416667,0,0,0.416667,0,0)"
font-family="Ubuntu" font-size="12.2222" font-weight="400" font-style="normal" 
>
</g>

<g fill="none" stroke="#000000" stroke-opacity="1" stroke-width="1" stroke-linecap="square" stroke-linejoin="bevel" transform="matrix(0.416667,0,0,0.416667,0,0)"
font-family="Ubuntu" font-size="12.2222" font-weight="400" font-style="normal" 
>
</g>

<g fill="none" stroke="#a0a0a4" stroke-opacity="1" stroke-dasharray="1,2" stroke-dashoffset="0" stroke-width="1" stroke-linecap="butt" stroke-linejoin="bevel" transform="matrix(0.416667,0,0,0.416667,0,0)"
font-family="Ubuntu" font-size="12.2222" font-weight="400" font-style="normal" 
>
<polyline fill="none" vector-effect="non-scaling-stroke" points="173.277,0 173.277,2122 " />
<polyline fill="none" vector-effect="non-scaling-stroke" points="298.553,0 298.553,2122 " />
<polyline fill="none" vector-effect="non-scaling-stroke" points="423.83,0 423.83,2122 " />
<polyline fill="none" vector-effect="non-scaling-stroke" points="549.107,0 549.107,2122 " />
<polyline fill="none" vector-effect="non-scaling-stroke" points="799.66,0 799.66,2122 " />
<polyline fill="none" vector-effect="non-scaling-stroke" points="924.937,0 924.937,2122 " />
<polyline fill="none" vector-effect="non-scaling-stroke" points="1050.21,0 1050.21,2122 " />
<polyline fill="none" vector-effect="non-scaling-stroke" points="1175.49,0 1175.49,2122 " />
<polyline fill="none" vector-effect="non-scaling-stroke" points="1426.04,0 1426.04,2122 " />
<polyline fill="none" vector-effect="non-scaling-stroke" points="1551.32,0 1551.32,2122 " />
<polyline fill="none" vector-effect="non-scaling-stroke" points="1676.6,0 1676.6,2122 " />
<polyline fill="none" vector-effect="non-scaling-stroke" points="1801.87,0 1801.87,2122 " />
<polyline fill="none" vector-effect="non-scaling-stroke" points="2052.43,0 2052.43,2122 " />
<polyline fill="none" vector-effect="non-scaling-stroke" points="2177.7,0 2177.7,2122 " />
<polyline fill="none" vector-effect="non-scaling-stroke" points="2302.98,0 2302.98,2122 " />
<polyline fill="none" vector-effect="non-scaling-stroke" points="2428.26,0 2428.26,2122 " />
<polyline fill="none" vector-effect="non-scaling-stroke" points="2678.81,0 2678.81,2122 " />
<polyline fill="none" vector-effect="non-scaling-stroke" points="2804.09,0 2804.09,2122 " />
<polyline fill="none" vector-effect="non-scaling-stroke" points="47,1951.61 2879,1951.61 " />
<polyline fill="none" vector-effect="non-scaling-stroke" points="47,1832.7 2879,1832.7 " />
<polyline fill="none" vector-effect="non-scaling-stroke" points="47,1713.79 2879,1713.79 " />
<polyline fill="none" vector-effect="non-scaling-stroke" points="47,1594.88 2879,1594.88 " />
<polyline fill="none" vector-effect="non-scaling-stroke" points="47,1357.05 2879,1357.05 " />
<polyline fill="none" vector-effect="non-scaling-stroke" points="47,1238.14 2879,1238.14 " />
<polyline fill="none" vector-effect="non-scaling-stroke" points="47,1119.23 2879,1119.23 " />
<polyline fill="none" vector-effect="non-scaling-stroke" points="47,1000.31 2879,1000.31 " />
<polyline fill="none" vector-effect="non-scaling-stroke" points="47,762.49 2879,762.49 " />
<polyline fill="none" vector-effect="non-scaling-stroke" points="47,643.578 2879,643.578 " />
<polyline fill="none" vector-effect="non-scaling-stroke" points="47,524.666 2879,524.666 " />
<polyline fill="none" vector-effect="non-scaling-stroke" points="47,405.753 2879,405.753 " />
<polyline fill="none" vector-effect="non-scaling-stroke" points="47,167.929 2879,167.929 " />
<polyline fill="none" vector-effect="non-scaling-stroke" points="47,49.0169 2879,49.0169 " />
<polyline fill="none" vector-effect="non-scaling-stroke" points="48,0 48,2122 " />
<polyline fill="none" vector-effect="non-scaling-stroke" points="674.383,0 674.383,2122 " />
<polyline fill="none" vector-effect="non-scaling-stroke" points="1300.77,0 1300.77,2122 " />
<polyline fill="none" vector-effect="non-scaling-stroke" points="1927.15,0 1927.15,2122 " />
<polyline fill="none" vector-effect="non-scaling-stroke" points="2553.53,0 2553.53,2122 " />
<polyline fill="none" vector-effect="non-scaling-stroke" points="47,2070.52 2879,2070.52 " />
<polyline fill="none" vector-effect="non-scaling-stroke" points="47,1475.96 2879,1475.96 " />
<polyline fill="none" vector-effect="non-scaling-stroke" points="47,881.402 2879,881.402 " />
<polyline fill="none" vector-effect="non-scaling-stroke" points="47,286.841 2879,286.841 " />
</g>

<g fill="none" stroke="#000000" stroke-opacity="1" stroke-width="1" stroke-linecap="square" stroke-linejoin="bevel" transform="matrix(0.416667,0,0,0.416667,0,0)"
font-family="Ubuntu" font-size="12.2222" font-weight="400" font-style="normal" 
>
</g>

<g fill="none" stroke="#000000" stroke-opacity="1" stroke-width="1" stroke-linecap="square" stroke-linejoin="bevel" transform="matrix(0.416667,0,0,0.416667,0,0)"
font-family="Ubuntu" font-size="12.2222" font-weight="400" font-style="normal" 
>
</g>

<g fill="none" stroke="#17becf" stroke-opacity="1" stroke-width="1.3" stroke-linecap="square" stroke-linejoin="bevel" transform="matrix(0.416667,0,0,0.416667,0,0)"
font-family="Ubuntu" font-size="12.2222" font-weight="400" font-style="normal" 
>
<polyline fill="none" vector-effect="none" points="48,2070.52 49.2528,2070.52 50.5055,2070.52 51.7583,2070.52 53.0111,2070.52 54.2638,2070.52 55.5166,2070.52 56.7694,2070.52 58.0221,2070.52 59.2749,2070.52 60.5277,2070.52 61.7804,2070.52 63.0332,2070.52 64.286,2070.52 65.5387,2070.52 66.7915,2070.52 66.7915,2070.52 69.297,2070.52 70.5498,2070.52 70.5498,2070.52 73.0553,2070.52 74.3081,2070.52 75.5609,2070.52 76.8136,2070.52 78.0664,2070.52 79.3192,2070.52 80.5719,2070.52 80.5719,2070.52 83.0775,2070.52 83.0775,2070.52 85.583,2070.52 86.8358,2070.52 88.0885,2070.52 88.0885,2070.52 90.5941,2070.52 90.5941,2070.52 93.0996,2070.52 94.3524,2070.52 95.6051,2070.52 95.6051,2070.52 98.1107,2070.52 99.3634,2070.52 100.616,2070.52 101.869,2070.52 101.869,2070.52 104.375,2070.52 104.375,2070.52 105.627,2070.52 108.133,2070.52 109.386,2070.52 110.638,2070.52 110.638,2070.52 113.144,2070.52 114.397,2070.52 114.397,2070.52 116.902,2070.52 116.902,2070.52 118.155,2070.52 120.66,2070.52 121.913,2070.52 123.166,2070.52 124.419,2070.52 125.672,2070.52 126.924,2070.52 128.177,2070.52 129.43,2070.52 130.683,2070.52 131.935,2070.52 133.188,2070.52 134.441,2070.52 135.694,2070.52 136.946,2070.52 138.199,2070.52 139.452,2070.52 140.705,2070.52 141.958,2070.52 143.21,2070.52 144.463,2070.52 145.716,2070.52 145.716,2070.52 148.221,2070.52 149.474,2070.52 150.727,2070.52 150.727,2070.52 153.232,2070.52 154.485,2070.52 154.485,2070.52 156.991,2070.52 158.243,2070.52 159.496,2070.52 160.749,2070.52 162.002,2070.52 163.255,2070.52 164.507,2070.52 165.76,2070.52 167.013,2070.52 168.266,2070.52 169.518,2070.52 170.771,2070.52 170.771,2070.52 173.277,2070.52 173.277,2070.52 175.782,2070.52 177.035,2070.52 178.288,2070.52 179.541,2070.52 180.793,2070.52 180.793,2070.52 183.299,2070.52 183.299,2070.52 185.804,2070.52 187.057,2070.52 188.31,2070.52 188.31,2070.52 190.815,2070.52 192.068,2070.52 192.068,2070.52 194.574,2070.52 195.826,2070.52 197.079,2070.52 198.332,2070.52 198.332,2070.52 200.838,2070.52 202.09,2070.52 202.09,2070.52 204.596,2070.52 205.849,2070.52 207.101,2070.52 208.354,2070.52 209.607,2070.52 210.86,2070.52 212.112,2070.52 213.365,2070.52 214.618,2070.52 214.618,2070.52 217.124,2070.52 218.376,2070.52 219.629,2070.52 219.629,2070.52 220.882,2070.52 223.387,2070.52 224.64,2070.52 225.893,2070.52 227.146,2070.52 227.146,2070.52 229.651,2070.52 229.651,2070.52 232.157,2070.52 233.409,2070.52 234.662,2070.52 235.915,2070.52 237.168,2070.52 237.168,2070.52 239.673,2070.52 240.926,2070.52 242.179,2070.52 243.432,2070.52 244.684,2070.52 245.937,2070.52 247.19,2070.52 248.443,2070.52 249.695,2070.52 250.948,2070.52 252.201,2070.52 253.454,2070.52 254.707,2070.52 255.959,2070.52 257.212,2070.52 258.465,2070.52 259.718,2070.52 260.97,2070.52 262.223,2070.52 263.476,2070.52 264.729,2070.52 265.981,2070.52 267.234,2070.52 268.487,2070.52 269.74,2070.52 270.992,2070.52 272.245,2070.52 273.498,2070.52 274.751,2070.52 276.004,2070.52 276.004,2070.52 278.509,2070.52 279.762,2070.52 281.015,2070.52 281.015,2070.52 282.267,2070.52 283.52,2070.52 286.026,2070.52 287.278,2070.52 287.278,2070.52 289.784,2070.52 289.784,2070.52 292.29,2070.52 293.542,2070.52 294.795,2070.52 296.048,2070.52 297.301,2070.52 298.553,2070.52 299.806,2070.52 299.806,2070.52 302.312,2070.52 303.564,2070.52 304.817,2070.52 304.817,2070.52 307.323,2070.52 308.575,2070.52 309.828,2070.52 311.081,2070.52 312.334,2070.52 313.587,2070.52 314.839,2070.52 316.092,2070.52 317.345,2070.52 318.598,2070.52 319.85,2070.52 321.103,2070.52 322.356,2070.52 323.609,2070.52 323.609,2070.52 326.114,2070.52 327.367,2070.52 328.62,2070.52 329.873,2070.52 331.125,2070.52 332.378,2070.52 333.631,2070.52 334.884,2070.52 336.136,2070.52 337.389,2070.52 338.642,2070.52 338.642,2070.52 339.895,2070.52 342.4,2070.52 342.4,2070.52 344.906,2070.52 346.158,2070.52 347.411,2070.52 348.664,2070.52 348.664,2070.52 351.17,2070.52 352.422,2070.52 353.675,2070.52 354.928,2070.52 354.928,2070.52 357.433,2070.52 358.686,2070.52 358.686,2070.52 361.192,2070.52 362.444,2070.52 363.697,2070.52 364.95,2070.52 366.203,2070.52 366.203,2070.52 368.708,2070.52 369.961,2070.52 371.214,2070.52 372.467,2070.52 373.719,2070.52 374.972,2070.52 376.225,2070.52 377.478,2070.52 378.73,2070.52 379.983,2070.52 381.236,2070.52 382.489,2070.52 383.741,2070.52 384.994,2070.52 386.247,2070.52 387.5,2070.52 388.753,2070.52 390.005,2070.52 391.258,2070.52 392.511,2070.52 393.764,2070.52 395.016,2070.52 396.269,2070.52 397.522,2070.52 398.775,2070.52 400.027,2070.52 401.28,2070.52 401.28,2070.52 403.786,2070.52 405.039,2070.52 406.291,2070.52 407.544,2070.52 407.544,2070.52 410.05,2070.52 411.302,2070.52 412.555,2070.52 413.808,2070.52 413.808,2070.52 416.313,2070.52 417.566,2070.52 417.566,2070.52 418.819,2070.52 421.324,2070.52 422.577,2070.52 423.83,2070.52 425.083,2070.52 426.336,2070.52 427.588,2070.52 428.841,2070.52 428.841,2070.52 431.347,2070.52 432.599,2070.52 432.599,2070.52 433.852,2070.52 436.358,2070.52 437.61,2070.52 438.863,2070.52 438.863,2070.52 441.369,2070.52 442.622,2070.52 443.874,2070.52 445.127,2070.52 446.38,2070.52 447.633,2070.52 448.885,2070.52 450.138,2070.52 451.391,2070.52 452.644,2070.52 453.896,2070.52 455.149,2070.52 456.402,2070.52 457.655,2070.52 458.907,2070.52 460.16,2070.52 461.413,2070.52 462.666,2070.52 463.919,2070.52 465.171,2070.52 466.424,2070.52 467.677,2070.52 468.93,2070.52 470.182,2070.52 471.435,2070.52 472.688,2070.52 473.941,2070.52 473.941,2070.52 476.446,2070.52 477.699,2070.52 478.952,2070.52 480.205,2070.52 481.457,2070.52 482.71,2070.52 483.963,2070.52 485.216,2070.52 486.468,2070.52 487.721,2070.52 488.974,2070.52 490.227,2070.52 491.479,2070.52 492.732,2070.52 493.985,2070.52 495.238,2070.52 496.49,2070.52 497.743,2070.52 498.996,2070.52 500.249,2070.52 501.502,2070.52 502.754,2070.52 504.007,2070.52 505.26,2070.52 506.513,2070.52 507.765,2070.52 509.018,2070.52 509.018,2070.52 511.524,2070.52 512.776,2070.52 514.029,2070.52 514.029,2070.52 516.535,2070.52 517.788,2070.52 519.04,2070.52 520.293,2070.52 521.546,2070.52 522.799,2070.52 524.051,2070.52 525.304,2070.52 526.557,2070.52 527.81,2070.52 527.81,2070.52 530.315,2070.52 530.315,2070.52 531.568,2070.52 534.073,2070.52 535.326,2070.52 536.579,2070.52 537.832,2070.52 539.085,2070.52 540.337,2070.52 540.337,2070.52 542.843,2070.52 544.096,2070.52 545.348,2070.52 546.601,2070.52 546.601,2070.52 547.854,2070.52 550.359,2070.52 550.359,2070.52 552.865,2070.52 554.118,2070.52 555.371,2070.52 555.371,2070.52 557.876,2070.52 559.129,2070.52 560.382,2070.52 561.634,2070.52 562.887,2070.52 564.14,2070.52 565.393,2070.52 566.645,2070.52 567.898,2070.52 569.151,2070.52 570.404,2070.52 571.656,2070.52 572.909,2070.52 574.162,2070.52 574.162,2070.52 576.668,2070.52 577.92,2070.52 577.92,2070.52 580.426,2070.52 581.679,2070.52 582.931,2070.52 582.931,2070.52 585.437,2070.52 586.69,2070.52 587.942,2070.52 587.942,2070.52 590.448,2070.52 591.701,2070.52 592.954,2070.52 594.206,2070.52 595.459,2070.52 595.459,2070.52 597.965,2070.52 599.217,2070.52 600.47,2070.52 601.723,2070.52 601.723,2070.52 604.228,2070.52 605.481,2070.52 606.734,2070.52 607.987,2070.52 609.239,2070.52 610.492,2070.52 611.745,2070.52 611.745,2070.52 614.251,2070.52 614.251,2070.52 616.756,2070.52 618.009,2070.52 619.262,2070.52 620.514,2051.82 621.767,2017.24 623.02,1985.84 624.273,1957.38 625.525,1931.55 626.778,1908.6 626.778,1887.78 629.284,1869.14 630.537,1852.11 630.537,1836.16 631.789,1821.36 633.042,1807.7 634.295,1794.98 636.8,1783.28 638.053,1772.26 639.306,1761.7 640.559,1751.75 641.811,1742.11 643.064,1732.64 644.317,1723.68 644.317,1715.45 645.57,1707.76 648.075,1700.64 649.328,1694.38 650.581,1688.93 650.581,1683.92 653.086,1679.01 654.339,1673.92 655.592,1668.42 656.845,1662.5 658.097,1656.42 659.35,1650.01 660.603,1643.23 661.856,1636.34 663.108,1629.31 664.361,1622.39 665.614,1615.36 666.867,1608.14 668.12,1601.12 669.372,1594.55 670.625,1588.29 671.878,1582.42 671.878,1577.1 673.131,1572.08 675.636,1567.09 676.889,1562 678.142,1557 679.394,1552.03 680.647,1547.99 681.9,1545.99 681.9,1546.27 684.405,1548.08 685.658,1550.02 686.911,1551.91 688.164,1553.46 689.417,1555.71 690.669,1558.61 691.922,1561.58 693.175,1564.6 694.428,1567.63 694.428,1570.58 696.933,1573.22 698.186,1575.36 698.186,1576.93 700.691,1577.93 701.944,1578.67 703.197,1579.11 704.45,1579.21 704.45,1578.95 705.703,1578.49 708.208,1577.88 709.461,1577.13 710.714,1576.03 710.714,1574.61 713.219,1572.9 714.472,1570.71 715.725,1568.73 716.977,1566.39 716.977,1563.92 719.483,1561.59 720.736,1559.5 721.988,1557.59 723.241,1555.74 724.494,1554.08 725.747,1552.53 727,1550.9 728.252,1549.12 729.505,1546.97 730.758,1544.41 730.758,1541.43 733.263,1538.03 734.516,1534.47 735.769,1530.62 737.022,1526.44 738.274,1522.72 739.527,1520.47 740.78,1518.04 740.78,1514.83 743.286,1511.67 744.538,1509.39 745.791,1508.2 747.044,1508.16 748.297,1509.17 749.549,1511.74 750.802,1516.33 752.055,1521.61 753.308,1526.01 754.56,1530.01 755.813,1533.66 757.066,1537.31 758.319,1541.14 758.319,1545.09 760.824,1549.08 762.077,1553.01 763.33,1556.9 764.583,1560.53 765.835,1563.82 767.088,1567.02 768.341,1570.08 768.341,1572.79 770.846,1574.93 772.099,1576.33 773.352,1576.82 774.605,1577.23 774.605,1578.74 777.11,1579.82 778.363,1579.75 779.616,1579.63 780.869,1579.48 782.121,1579.14 782.121,1578.69 784.627,1578.08 784.627,1577.16 787.132,1576.08 788.385,1575.13 789.638,1574.21 790.891,1573.33 792.143,1572.41 793.396,1571.28 793.396,1569.97 795.902,1568.55 797.154,1566.79 798.407,1564.52 798.407,1561.72 800.913,1558.38 802.166,1554.88 803.418,1551.31 804.671,1547.85 804.671,1544.87 805.924,1542.43 807.177,1540.22 809.682,1538.95 810.935,1539.52 812.188,1541.31 813.44,1543.38 814.693,1545.75 815.946,1547.86 817.199,1550.47 818.452,1553.19 819.704,1555.88 820.957,1558.42 822.21,1560.8 823.463,1562.98 824.715,1564.87 824.715,1566.5 827.221,1567.69 828.474,1568.41 829.726,1568.87 830.979,1568.88 832.232,1568.36 832.232,1567.44 834.737,1566.19 835.99,1564.6 837.243,1562.6 838.496,1560.32 838.496,1557.88 841.001,1555.97 841.001,1553.97 842.254,1552.05 844.76,1550.32 846.012,1548.95 846.012,1547.73 848.518,1546.47 849.771,1545.14 851.023,1544.79 851.023,1545.04 853.529,1546.08 854.782,1547.34 856.035,1548.89 857.287,1550.78 858.54,1552.9 858.54,1554.97 861.046,1556.79 862.298,1558.17 862.298,1559.09 864.804,1559.54 866.057,1559.36 866.057,1558.46 867.309,1556.94 869.815,1554.88 871.068,1552.13 872.32,1549.37 873.573,1547.75 874.826,1547.31 876.079,1546.34 877.332,1545.11 878.584,1543.69 879.837,1542.98 879.837,1543.4 882.343,1543.99 883.595,1544.93 884.848,1546.36 886.101,1548.11 886.101,1549.97 888.606,1551.81 888.606,1553.39 891.112,1554.49 892.365,1554.97 893.618,1555.78 894.87,1558.05 894.87,1562.1 897.376,1566.11 898.629,1570.95 899.881,1575.63 899.881,1578.53 902.387,1581.39 903.64,1584.81 904.892,1588.03 906.145,1591.08 906.145,1593.87 908.651,1596.36 909.903,1598.38 911.156,1599.87 912.409,1600.85 913.662,1601.52 914.915,1601.79 916.167,1601.65 917.42,1600.99 918.673,1599.92 919.926,1598.45 921.178,1596.4 922.431,1593.76 922.431,1590.78 924.937,1587.39 926.189,1583.4 927.442,1578.81 927.442,1574 929.948,1569.08 931.201,1564.03 931.201,1558.99 933.706,1554.22 934.959,1549.72 934.959,1545.39 937.464,1541.12 938.717,1537.1 939.97,1533.34 941.223,1529.88 942.475,1526.7 942.475,1523.86 944.981,1521.46 946.234,1519.27 946.234,1517.16 948.739,1514.95 948.739,1512.69 951.245,1510.33 952.498,1507.79 952.498,1505.18 955.003,1503.21 956.256,1501.18 957.509,1498.98 958.761,1496.76 960.014,1495.34 961.267,1494.33 962.52,1494.41 963.772,1495.1 965.025,1496.3 966.278,1498.04 967.531,1500.15 968.784,1502.32 970.036,1504.37 971.289,1506.3 972.542,1507.95 973.795,1509.38 973.795,1510.86 976.3,1512.74 977.553,1515.01 978.806,1517.42 980.058,1519.72 980.058,1521.64 981.311,1523.01 983.817,1523.82 983.817,1524.1 985.069,1524.7 987.575,1524.85 988.828,1524.3 990.081,1523.38 990.081,1522.37 992.586,1521.06 993.839,1519.41 995.092,1517.69 996.344,1515.87 997.597,1514.35 998.85,1513.38 1000.1,1512.73 1001.36,1512.34 1001.36,1512.1 1003.86,1511.73 1005.11,1511.1 1006.37,1510.29 1007.62,1510.19 1007.62,1511.86 1010.12,1513.78 1011.38,1515.08 1012.63,1516.63 1013.88,1518.23 1013.88,1519.72 1015.14,1521.08 1016.39,1522.11 1018.89,1522.58 1018.89,1522.44 1021.4,1521.53 1021.4,1519.87 1023.91,1517.79 1025.16,1515.32 1026.41,1512.62 1027.66,1509.66 1028.92,1507.53 1030.17,1505.71 1031.42,1504.25 1032.67,1503.5 1033.93,1503.16 1033.93,1503.12 1036.43,1503.37 1037.69,1504.71 1037.69,1506.31 1040.19,1507.82 1041.44,1509.45 1042.7,1511.09 1043.95,1512.48 1045.2,1513.46 1046.46,1514.07 1047.71,1514.36 1048.96,1514.32 1050.21,1513.74 1051.47,1512.57 1052.72,1511.04 1053.97,1509.28 1055.22,1507.32 1055.22,1505.4 1057.73,1503.33 1057.73,1501.06 1060.24,1498.78 1060.24,1496.45 1062.74,1494 1063.99,1492.4 1065.25,1492.45 1065.25,1492.42 1067.75,1492.78 1067.75,1494.1 1070.26,1495.66 1071.51,1497.44 1072.76,1499.41 1074.02,1501.53 1075.27,1503.68 1076.52,1505.65 1077.77,1507.3 1079.03,1508.71 1080.28,1509.85 1081.53,1510.52 1082.79,1510.7 1084.04,1510.69 1085.29,1511.21 1086.54,1511.65 1087.8,1512.18 1089.05,1512.98 1090.3,1514.03 1091.55,1515.21 1092.81,1516.27 1094.06,1517.08 1094.06,1517.45 1096.57,1517.39 1097.82,1516.91 1099.07,1515.91 1100.32,1514.49 1101.58,1512.75 1102.83,1510.67 1104.08,1508.13 1105.34,1505.18 1106.59,1501.95 1107.84,1498.55 1109.09,1494.78 1110.35,1490.49 1111.6,1485.62 1112.85,1480.26 1114.1,1474.57 1115.36,1468.85 1116.61,1463.43 1116.61,1458.5 1117.86,1454.43 1120.37,1451.04 1120.37,1450.29 1122.87,1451.12 1124.13,1452.14 1125.38,1455.5 1126.63,1460.29 1127.88,1464.85 1129.14,1468.66 1130.39,1473.08 1131.64,1476.98 1132.9,1480.63 1134.15,1484.16 1135.4,1487.8 1135.4,1491.45 1137.91,1495.13 1139.16,1498.59 1140.41,1501.62 1140.41,1504.08 1141.67,1506.07 1144.17,1507.94 1145.42,1510.03 1146.68,1512.61 1147.93,1515.39 1149.18,1518.28 1150.43,1521.21 1151.69,1524.82 1152.94,1528.3 1154.19,1531.34 1155.45,1534.22 1156.7,1537.09 1157.95,1539.76 1159.2,1541.97 1160.46,1543.55 1161.71,1544.45 1162.96,1544.86 1164.22,1544.61 1165.47,1543.69 1166.72,1542.25 1167.97,1540.41 1169.23,1538.25 1170.48,1535.91 1171.73,1533.37 1172.98,1530.54 1174.24,1527.37 1175.49,1524 1176.74,1520.41 1178,1517.2 1178,1515.46 1180.5,1513.87 1181.75,1511.78 1183.01,1510.05 1183.01,1508.44 1185.51,1506.73 1186.76,1504.88 1188.02,1502.74 1188.02,1500.27 1190.52,1498.38 1191.78,1496.62 1193.03,1495.05 1194.28,1493.9 1195.53,1493.47 1196.79,1493.7 1198.04,1494.27 1198.04,1494.98 1200.55,1495.73 1201.8,1497.33 1201.8,1499.21 1204.3,1501.46 1205.56,1504.02 1206.81,1506.7 1208.06,1509.26 1209.31,1511.51 1210.57,1513.49 1210.57,1515.27 1213.07,1516.73 1214.33,1517.87 1215.58,1519.22 1216.83,1520.42 1218.08,1521.58 1219.34,1523.01 1220.59,1524.62 1221.84,1526.33 1223.1,1527.95 1224.35,1529.38 1224.35,1530.41 1226.85,1530.83 1228.11,1530.64 1228.11,1530.04 1230.61,1529.08 1231.86,1527.73 1233.12,1525.89 1233.12,1523.68 1235.62,1521.33 1236.88,1518.89 1238.13,1516.3 1239.38,1513.53 1240.63,1510.89 1241.89,1508.39 1243.14,1506.03 1243.14,1504.88 1245.64,1505.49 1246.9,1506.89 1246.9,1508.12 1249.4,1509.46 1250.66,1510.86 1251.91,1512.03 1253.16,1512.91 1253.16,1513.92 1255.67,1515.32 1256.92,1517.11 1258.17,1519.18 1259.43,1521.24 1260.68,1523.01 1261.93,1524.29 1263.18,1524.97 1264.44,1525.07 1265.69,1524.6 1265.69,1523.71 1268.19,1522.41 1269.45,1520.54 1269.45,1518.06 1271.95,1515.2 1273.21,1511.84 1274.46,1508.75 1275.71,1507.06 1276.96,1505.58 1278.22,1504.12 1279.47,1504.1 1280.72,1505.21 1281.98,1506.36 1283.23,1507.7 1283.23,1509.11 1284.48,1510.47 1286.99,1512.63 1288.24,1515.32 1289.49,1517.85 1290.74,1520.57 1292,1523.67 1293.25,1527.01 1294.5,1530.32 1295.76,1533.36 1297.01,1535.9 1298.26,1537.74 1299.51,1538.79 1300.77,1539.1 1302.02,1538.75 1303.27,1537.74 1304.53,1536.12 1305.78,1533.9 1307.03,1531.27 1307.03,1528.24 1308.28,1525.18 1310.79,1522.33 1312.04,1519.47 1313.29,1516.41 1314.55,1513.3 1315.8,1510.35 1315.8,1507.33 1317.05,1504.14 1319.56,1501.02 1320.81,1497.88 1320.81,1494.71 1323.32,1491.3 1323.32,1487.59 1324.57,1483.86 1325.82,1479.92 1328.33,1475.69 1329.58,1471.54 1330.83,1468.22 1330.83,1465.53 1332.09,1463.61 1334.59,1463.79 1335.84,1464.6 1337.1,1465.6 1338.35,1467.1 1339.6,1469.18 1339.6,1471.73 1342.11,1475 1343.36,1480.24 1344.61,1485.38 1345.87,1490.35 1345.87,1495.97 1348.37,1500.8 1349.62,1505.03 1350.88,1508.93 1352.13,1512.8 1353.38,1516.35 1354.64,1519.65 1355.89,1523 1355.89,1526.58 1357.14,1530.32 1359.65,1533.95 1359.65,1537.23 1362.15,1540 1362.15,1542.06 1364.66,1543.26 1365.91,1543.43 1367.16,1542.57 1367.16,1540.98 1369.67,1539.01 1369.67,1536.6 1372.17,1533.81 1373.43,1531.55 1374.68,1529.2 1374.68,1526.67 1377.19,1524.21 1378.44,1521.94 1379.69,1519.76 1380.94,1517.51 1382.2,1515.34 1383.45,1513.39 1384.7,1511.59 1385.95,1509.74 1387.21,1507.77 1387.21,1505.6 1389.71,1503.4 1390.97,1501.04 1392.22,1499.14 1393.47,1497.62 1394.72,1495.93 1394.72,1494.46 1397.23,1493.67 1398.48,1493.74 1399.74,1494.51 1399.74,1495.62 1402.24,1496.83 1403.49,1497.89 1404.75,1498.71 1406,1499.33 1407.25,1499.54 1407.25,1499.28 1409.76,1498.59 1409.76,1497.34 1412.26,1495.59 1413.52,1493.29 1414.77,1490.68 1416.02,1487.53 1417.27,1483.81 1418.53,1479.75 1419.78,1475.43 1421.03,1470.71 1422.29,1465.83 1423.54,1460.97 1424.79,1455.86 1426.04,1450.23 1427.3,1443.99 1428.55,1437.42 1429.8,1430.73 1431.05,1424.32 1432.31,1417.87 1433.56,1411.37 1433.56,1404.6 1436.07,1397.72 1437.32,1390.84 1438.57,1383.93 1439.82,1376.78 1441.08,1369.33 1442.33,1361.87 1442.33,1354.51 1444.83,1347 1446.09,1339.23 1447.34,1331.19 1448.59,1322.93 1449.85,1314.5 1449.85,1305.89 1452.35,1297.19 1453.6,1288.7 1454.86,1280.21 1456.11,1271.59 1457.36,1262.87 1458.62,1254.03 1459.87,1245.13 1461.12,1236.45 1462.37,1227.89 1462.37,1219.67 1464.88,1211.58 1464.88,1203.43 1467.38,1195.17 1468.64,1187.01 1469.89,1178.89 1471.14,1170.64 1472.4,1162.29 1473.65,1153.88 1474.9,1145.59 1476.15,1137.44 1476.15,1129.51 1478.66,1121.85 1479.91,1114.72 1481.17,1108.14 1482.42,1101.98 1483.67,1095.87 1484.92,1089.75 1486.18,1083.87 1487.43,1078.19 1487.43,1072.65 1488.68,1067.29 1491.19,1061.93 1491.19,1056.35 1493.69,1050.45 1494.95,1044.24 1496.2,1037.71 1497.45,1030.97 1498.7,1024.36 1499.96,1018.04 1501.21,1011.93 1502.46,1005.84 1502.46,999.616 1503.71,993.473 1504.97,987.537 1507.47,982.032 1508.73,976.788 1509.98,971.633 1511.23,966.762 1512.48,961.986 1513.74,957.071 1514.99,951.867 1516.24,946.309 1517.5,940.445 1518.75,934.302 1520,927.888 1520,921.239 1522.51,914.375 1522.51,907.356 1525.01,900.28 1526.26,893.081 1527.52,885.845 1528.77,878.555 1530.02,871.131 1531.28,863.581 1532.53,855.917 1532.53,848.152 1535.03,840.297 1536.29,832.388 1537.54,824.502 1538.79,816.552 1540.05,808.533 1541.3,800.493 1542.55,792.594 1543.8,784.894 1545.06,777.273 1546.31,769.794 1547.56,762.344 1548.81,755.13 1550.07,748.165 1551.32,741.254 1552.57,734.238 1553.83,727.135 1555.08,720.144 1556.33,713.353 1557.58,706.797 1558.84,700.756 1560.09,695.565 1561.34,691.463 1562.59,688.271 1563.85,686.107 1565.1,685.329 1566.35,684.931 1567.61,685.025 1567.61,685.315 1568.86,685.534 1571.36,685.572 1572.62,685.496 1572.62,685.481 1575.12,685.788 1576.38,687.424 1576.38,690.302 1577.63,693.451 1580.13,697.327 1581.39,701.854 1581.39,706.922 1583.89,712.545 1585.14,718.472 1586.4,724.442 1587.65,730.229 1588.9,735.622 1590.16,740.423 1591.41,744.462 1591.41,747.7 1593.91,750.107 1595.17,752.098 1596.42,754.771 1597.67,758.094 1598.93,761.214 1600.18,765.29 1601.43,769.991 1601.43,774.881 1603.94,780.043 1605.19,785.325 1606.44,790.513 1607.69,795.38 1608.95,799.719 1610.2,803.422 1611.45,806.498 1612.71,808.958 1613.96,810.644 1615.21,811.446 1616.46,811.56 1616.46,811.035 1618.97,809.862 1620.22,808.497 1621.47,808.023 1622.73,808.403 1623.98,808.594 1625.23,808.958 1626.49,810.062 1627.74,811.732 1628.99,814.08 1630.24,817.082 1631.5,820.449 1632.75,823.895 1634,827.328 1635.26,831.086 1636.51,835.405 1637.76,840.345 1637.76,846.188 1640.27,851.877 1640.27,857.622 1642.77,863.185 1644.02,868.467 1644.02,873.501 1645.28,878.104 1647.78,882.116 1649.04,885.565 1650.29,888.289 1651.54,890.103 1652.79,890.866 1654.05,890.661 1655.3,889.599 1656.55,887.756 1657.81,885.206 1659.06,882.082 1659.06,878.617 1661.56,874.946 1662.82,871.134 1664.07,867.073 1664.07,863.01 1666.57,858.951 1667.83,855.149 1669.08,851.438 1670.33,847.612 1671.59,843.915 1672.84,841.283 1674.09,839.607 1675.34,839.134 1676.6,839.759 1676.6,840.767 1677.85,843.109 1680.36,846.692 1681.61,852.066 1682.86,858.729 1684.11,865.801 1685.37,872.033 1686.62,878.453 1687.87,885.211 1689.12,892.32 1690.38,899.46 1691.63,906.466 1691.63,913.137 1692.88,919.275 1695.39,924.774 1696.64,930.009 1697.89,935.202 1699.15,940.21 1700.4,945.051 1701.65,949.542 1702.9,953.93 1704.16,958.637 1704.16,962.621 1705.41,966.174 1706.66,969.086 1709.17,971.168 1710.42,972.28 1711.67,972.513 1711.67,972.277 1714.18,972.828 1715.43,974.697 1716.69,978.319 1717.94,984.073 1717.94,992.017 1720.44,1002.04 1721.7,1014.1 1722.95,1027.6 1724.2,1041.92 1725.45,1057.43 1726.71,1072.73 1727.96,1089.27 1729.21,1107.07 1729.21,1125.4 1730.47,1143.89 1732.97,1161.77 1734.22,1180.28 1735.48,1197.56 1736.73,1214.35 1736.73,1230.42 1739.24,1245.27 1740.49,1259.69 1741.74,1272.73 1742.99,1285.28 1744.25,1295.46 1745.5,1305.04 1746.75,1315.27 1748,1325.02 1749.26,1333.82 1750.51,1341.88 1750.51,1349.65 1753.02,1357.29 1754.27,1364.67 1755.52,1372.05 1756.77,1379.4 1758.03,1385.98 1759.28,1391.97 1760.53,1397.26 1761.78,1401.82 1761.78,1405.93 1764.29,1409.46 1765.54,1412.23 1766.8,1414.27 1768.05,1416.13 1769.3,1418.46 1770.55,1421.46 1771.81,1424.1 1773.06,1426.73 1774.31,1429.13 1774.31,1431.83 1776.82,1436.2 1778.07,1441.3 1779.32,1444.84 1779.32,1448.44 1781.83,1451.89 1783.08,1454.98 1784.33,1457.48 1785.59,1459.22 1786.84,1460.29 1788.09,1461.11 1789.35,1461.46 1790.6,1461.23 1791.85,1460.59 1793.1,1459.66 1794.36,1458.55 1795.61,1457.04 1796.86,1455.15 1798.12,1452.72 1799.37,1449.91 1800.62,1446.77 1801.87,1443.19 1803.13,1439.31 1804.38,1435.02 1805.63,1430.65 1805.63,1426.19 1806.88,1421.91 1809.39,1419.15 1810.64,1417.43 1810.64,1415.91 1813.15,1415.11 1814.4,1415 1815.65,1415.48 1816.91,1416.19 1818.16,1416.95 1819.41,1417.93 1820.66,1419.04 1821.92,1420.54 1823.17,1422.57 1824.42,1424 1825.68,1425.33 1826.93,1426.35 1826.93,1427.03 1829.43,1427.91 1830.69,1430.2 1830.69,1432.84 1833.19,1435.34 1834.45,1437.8 1835.7,1440.3 1836.95,1443.16 1838.2,1446.29 1839.46,1449.57 1840.71,1452.81 1841.96,1456.3 1843.21,1461.41 1844.47,1467.69 1845.72,1473.5 1846.97,1477.59 1848.23,1481.44 1848.23,1485.16 1850.73,1488.82 1851.98,1492.5 1853.24,1496.23 1853.24,1499.78 1854.49,1502.91 1857,1505.42 1858.25,1507.16 1859.5,1508.14 1859.5,1508.58 1862.01,1508.9 1863.26,1509.13 1864.51,1509.14 1865.76,1508.99 1867.02,1508.64 1868.27,1507.93 1869.52,1506.91 1870.78,1505.6 1872.03,1503.77 1873.28,1501.26 1874.53,1498.04 1875.79,1494.57 1877.04,1491.15 1878.29,1487.83 1879.54,1484.35 1880.8,1480.6 1882.05,1476.84 1883.3,1472.94 1884.56,1468.83 1885.81,1464.31 1887.06,1459.42 1887.06,1454.98 1889.57,1451.73 1890.82,1448.67 1892.07,1445.94 1893.33,1444.19 1893.33,1444.07 1894.58,1446.34 1897.08,1449.67 1898.34,1451.5 1899.59,1453.39 1900.84,1455.59 1900.84,1457.87 1903.35,1460.22 1904.6,1462.36 1905.85,1464.07 1907.11,1465.34 1907.11,1466.17 1909.61,1466.5 1910.86,1466.21 1912.12,1465.45 1913.37,1464.01 1913.37,1461.85 1915.88,1459.77 1917.13,1458.83 1918.38,1457.91 1919.63,1457.29 1920.89,1457.11 1922.14,1457.71 1923.39,1458.79 1924.64,1460.19 1924.64,1461.78 1925.9,1463.29 1928.4,1464.68 1929.66,1465.74 1930.91,1466.27 1930.91,1466.05 1933.41,1465.06 1934.67,1464.23 1935.92,1464.7 1937.17,1465.9 1938.42,1467.28 1939.68,1468.39 1940.93,1469.85 1942.18,1471.95 1943.44,1474.48 1944.69,1477.55 1945.94,1480.81 1947.19,1484.04 1948.45,1487.07 1949.7,1489.69 1949.7,1491.8 1952.21,1493.22 1953.46,1493.76 1954.71,1493.45 1954.71,1492.62 1957.22,1491.37 1958.47,1489.67 1959.72,1487.69 1959.72,1485.39 1962.23,1482.89 1963.48,1480.99 1963.48,1480.78 1964.73,1480.73 1965.99,1479.7 1968.49,1478.54 1969.74,1477.09 1969.74,1475.2 1972.25,1472.9 1973.5,1469.99 1974.76,1466.5 1974.76,1462.47 1977.26,1457.77 1978.51,1452.38 1979.77,1446.44 1981.02,1440.42 1982.27,1434.53 1983.52,1429.13 1983.52,1424.61 1986.03,1420.56 1987.28,1417.61 1988.54,1416.06 1989.79,1415.95 1989.79,1415.99 1992.29,1416.61 1993.55,1417.61 1994.8,1419.43 1994.8,1421.78 1997.31,1424.27 1998.56,1427.18 1999.81,1430.37 2001.06,1433.7 2002.32,1436.93 2003.57,1439.88 2003.57,1442.41 2006.07,1444.66 2007.33,1446.42 2007.33,1447.66 2008.58,1448.2 2011.09,1447.91 2012.34,1447.45 2012.34,1447.16 2013.59,1446.52 2014.84,1445.85 2017.35,1445.01 2018.6,1444.35 2019.85,1443.86 2021.11,1443.55 2022.36,1443.51 2023.61,1443.42 2024.87,1443.15 2026.12,1442.96 2027.37,1443.14 2028.62,1444.11 2029.88,1445.53 2031.13,1447.64 2031.13,1450.07 2033.64,1452.61 2034.89,1455.24 2036.14,1458.26 2036.14,1461.57 2038.65,1464.99 2039.9,1468.55 2041.15,1471.99 2041.15,1475.06 2043.66,1477.54 2044.91,1479.29 2046.16,1480.14 2047.42,1480.02 2048.67,1478.95 2049.92,1477.13 2051.17,1474.65 2052.43,1471.48 2053.68,1467.65 2054.93,1462.97 2056.19,1457.61 2056.19,1451.86 2058.69,1445.54 2058.69,1439.21 2061.2,1432.57 2062.45,1425.91 2062.45,1419.35 2064.95,1412.59 2064.95,1405.94 2067.46,1399.07 2068.71,1391.8 2069.97,1384.23 2071.22,1376.77 2072.47,1369.79 2073.72,1362.99 2073.72,1356.12 2076.23,1349.04 2077.48,1342 2078.73,1334.83 2079.99,1327.42 2081.24,1320.12 2082.49,1313.01 2082.49,1305.99 2085,1299.1 2085,1292.24 2087.5,1285.74 2088.76,1279.85 2088.76,1274.37 2091.26,1269.01 2092.52,1263.47 2092.52,1257.55 2095.02,1251.18 2095.02,1244.43 2096.27,1237.4 2098.78,1230.37 2100.03,1223.35 2101.28,1216.61 2102.54,1209.94 2102.54,1203.2 2105.04,1196.53 2106.3,1189.92 2107.55,1183.14 2108.8,1176.26 2110.05,1169.57 2111.31,1162.87 2112.56,1156.09 2113.81,1149.3 2115.07,1142.5 2116.32,1135.62 2117.57,1128.52 2118.82,1121.32 2120.08,1114.04 2120.08,1106.58 2121.33,1099.13 2123.83,1091.71 2125.09,1084.16 2126.34,1076.7 2127.59,1069.18 2128.85,1061.75 2130.1,1054.22 2131.35,1046.76 2132.6,1039.45 2133.86,1032.4 2135.11,1025.65 2136.36,1019.21 2137.61,1012.8 2138.87,1006.24 2140.12,999.613 2141.37,992.987 2141.37,986.228 2143.88,979.416 2145.13,972.432 2146.38,965.283 2147.64,958.092 2148.89,950.766 2150.14,943.442 2150.14,936.395 2152.65,929.448 2153.9,922.515 2155.15,915.435 2156.41,908.281 2157.66,901.087 2158.91,893.923 2160.16,886.642 2161.42,879.258 2162.67,871.939 2163.92,864.675 2165.18,857.317 2166.43,849.816 2166.43,842.239 2168.93,834.684 2170.19,827.099 2171.44,819.476 2172.69,811.987 2173.95,804.686 2173.95,797.861 2176.45,791.846 2177.7,786.972 2178.96,783.432 2180.21,781.002 2181.46,779.579 2182.71,778.866 2183.97,778.593 2183.97,778.424 2186.47,778.222 2187.73,778.188 2188.98,778.235 2190.23,778.6 2191.48,779.162 2192.74,780.159 2193.99,781.384 2195.24,782.864 2196.49,785.005 2197.75,787.32 2199,790.713 2200.25,794.521 2201.51,798.886 2201.51,803.554 2204.01,808.557 2205.26,814.214 2206.52,819.523 2207.77,824.754 2209.02,829.822 2210.28,834.704 2211.53,839.443 2212.78,844.026 2212.78,848.359 2215.29,852.69 2215.29,856.851 2216.54,860.618 2217.79,863.785 2220.3,866.168 2221.55,867.792 2222.8,869.021 2224.06,869.865 2224.06,870.234 2226.56,870.191 2227.81,869.917 2229.07,869.387 2230.32,868.456 2231.57,867.141 2232.83,865.806 2234.08,864.892 2235.33,863.516 2236.58,862.476 2237.84,862.051 2239.09,862.134 2240.34,862.947 2241.59,864.708 2242.85,867.747 2242.85,871.218 2245.35,876.404 2246.61,882.664 2247.86,888.131 2249.11,893.564 2250.36,899.06 2251.62,904.386 2252.87,909.325 2254.12,913.69 2255.37,917.374 2255.37,920.615 2257.88,923.328 2259.13,925.63 2260.39,927.504 2260.39,928.885 2262.89,930.078 2262.89,931.003 2265.4,931.614 2266.65,931.741 2267.9,931.235 2269.16,930.469 2270.41,930.003 2271.66,929.396 2272.91,929.591 2274.17,931.1 2275.42,933.188 2276.67,935.841 2276.67,939.021 2279.18,942.447 2280.43,945.9 2280.43,949.469 2281.68,953.389 2284.19,957.691 2285.44,962.115 2285.44,966.402 2287.95,970.32 2287.95,973.665 2290.45,976.247 2291.71,977.881 2292.96,978.492 2294.21,978.335 2295.46,977.566 2295.46,976.636 2297.97,975.995 2299.22,976.099 2299.22,977.168 2301.73,978.941 2302.98,981.489 2304.23,984.652 2305.49,988.319 2306.74,992.608 2307.99,997.807 2309.24,1002.78 2310.5,1007.8 2311.75,1012.75 2313,1017.42 2314.25,1021.59 2315.51,1025.06 2316.76,1027.74 2316.76,1029.85 2318.01,1031.23 2320.52,1031.79 2321.77,1031.98 2323.02,1032.28 2324.28,1033.38 2325.53,1035.63 2326.78,1037.89 2328.04,1040.61 2329.29,1043.86 2330.54,1048.7 2331.79,1054.65 2331.79,1060.42 2334.3,1065.99 2334.3,1072.32 2335.55,1078.42 2338.06,1084.71 2339.31,1090.96 2340.56,1096.93 2341.82,1102.44 2343.07,1107.51 2343.07,1112.17 2345.57,1116.36 2345.57,1119.93 2348.08,1122.66 2348.08,1124.48 2350.59,1125.77 2351.84,1126.57 2351.84,1126.72 2353.09,1126.14 2355.6,1124.84 2356.85,1122.75 2358.1,1119.99 2358.1,1116.55 2360.61,1112.61 2361.86,1108.11 2363.11,1103.07 2364.37,1097.62 2365.62,1091.98 2366.87,1086.3 2368.12,1080.73 2369.38,1075.56 2370.63,1071.62 2371.88,1068.27 2373.14,1065.58 2373.14,1064.21 2375.64,1063.96 2376.89,1064.62 2378.15,1066.22 2379.4,1068.46 2380.65,1070.99 2381.9,1073.9 2383.16,1078.33 2384.41,1083.85 2385.66,1089.07 2386.92,1093.91 2386.92,1098.73 2389.42,1103.38 2390.67,1107.81 2391.93,1111.82 2393.18,1115.2 2394.43,1117.91 2394.43,1119.98 2396.94,1121.57 2398.19,1123.02 2398.19,1124.19 2400.7,1125.1 2401.95,1125.74 2403.2,1125.9 2404.45,1125.38 2404.45,1124.11 2406.96,1122.19 2408.21,1119.56 2409.47,1116.44 2410.72,1112.96 2411.97,1109.4 2413.22,1105.59 2414.48,1101.32 2415.73,1096.88 2416.98,1092.77 2418.23,1088.57 2419.49,1085.06 2420.74,1082.03 2421.99,1079.23 2421.99,1076.92 2423.25,1074.96 2424.5,1073.56 2427,1073.04 2428.26,1073.58 2429.51,1074.6 2430.76,1077.2 2432.02,1080.89 2433.27,1085.76 2434.52,1089.96 2435.77,1094.47 2437.03,1099.28 2438.28,1104.33 2439.53,1109.47 2439.53,1114.48 2440.78,1119.12 2443.29,1123.28 2444.54,1127.16 2444.54,1130.58 2447.05,1133.33 2447.05,1135.22 2449.55,1136.07 2450.81,1135.92 2450.81,1134.86 2453.31,1133.02 2454.56,1130.48 2455.82,1127.32 2457.07,1123.5 2458.32,1119.29 2459.58,1114.54 2460.83,1109.5 2462.08,1103.95 2463.33,1098.03 2464.59,1092.06 2465.84,1086.06 2467.09,1079.88 2468.35,1073.31 2469.6,1066.53 2470.85,1059.84 2472.1,1053.11 2473.36,1046.6 2474.61,1039.75 2475.86,1032.97 2477.11,1026.66 2477.11,1020.5 2479.62,1014.34 2479.62,1007.94 2482.13,1001.6 2483.38,995.158 2484.63,988.478 2485.88,981.579 2487.14,974.406 2488.39,967.11 2489.64,959.733 2490.9,952.271 2490.9,944.79 2493.4,937.387 2494.65,929.894 2495.91,922.299 2497.16,914.505 2498.41,906.527 2498.41,898.563 2500.92,890.834 2502.17,883.167 2503.42,875.598 2504.68,868.043 2505.93,860.499 2507.18,852.964 2508.43,845.29 2509.69,837.598 2510.94,829.981 2512.19,822.326 2513.44,814.774 2514.7,807.536 2515.95,800.379 2517.2,793.196 2517.2,785.948 2519.71,778.784 2520.96,771.629 2522.21,764.389 2523.47,757.161 2524.72,749.849 2525.97,742.529 2527.23,735.204 2528.48,727.806 2529.73,720.458 2529.73,713.233 2532.24,706.311 2533.49,699.608 2533.49,692.88 2535.99,686.154 2537.25,679.296 2538.5,672.357 2539.75,665.385 2541.01,658.311 2542.26,651.243 2543.51,644.068 2544.76,636.829 2546.02,629.658 2547.27,622.432 2547.27,615.245 2549.78,608.198 2551.03,601.085 2552.28,593.886 2553.53,586.651 2554.79,579.355 2554.79,571.991 2557.29,564.601 2558.54,557.302 2559.8,550.116 2561.05,543.044 2562.3,535.943 2563.56,528.818 2563.56,521.78 2566.06,514.761 2567.31,507.729 2567.31,500.653 2568.57,493.573 2569.82,486.556 2571.07,479.572 2573.58,472.533 2573.58,465.446 2576.08,458.329 2577.34,451.182 2578.59,443.992 2579.84,436.773 2581.09,429.516 2582.35,422.209 2583.6,414.878 2584.85,407.523 2586.11,400.142 2587.36,392.751 2588.61,385.403 2589.86,378.133 2589.86,370.878 2592.37,363.634 2593.62,356.389 2594.87,349.165 2596.13,341.933 2597.38,334.723 2598.63,327.705 2599.89,320.812 2601.14,313.924 2602.39,307.048 2603.64,300.158 2604.9,293.279 2604.9,286.377 2607.4,279.427 2608.66,272.452 2609.91,265.457 2611.16,258.484 2612.41,251.555 2613.67,244.627 2614.92,237.703 2616.17,230.792 2617.42,224.079 2617.42,217.535 2619.93,211.351 2621.18,205.57 2622.44,200.022 2622.44,194.501 2624.94,188.879 2626.19,183.151 2627.45,177.324 2628.7,171.39 2629.95,165.375 2631.2,159.284 2632.46,153.119 2633.71,146.89 2634.96,140.599 2636.22,134.28 2637.47,128.007 2638.72,121.697 2639.97,115.334 2639.97,108.925 2642.48,102.492 2643.73,96.0832 2644.99,89.6408 2646.24,83.2906 2647.49,77.6132 2648.74,72.4656 2650,67.5747 2651.25,63.2089 2652.5,59.2001 2653.75,55.4861 2655.01,52.7447 2656.26,51.4762 2656.26,52.1682 2658.77,55.1695 2658.77,60.0921 2661.27,65.3586 2662.52,70.4327 2662.52,75.1199 2663.78,80.0675 2666.28,85.6385 2666.28,91.0896 2668.79,96.5051 2670.04,101.687 2670.04,106.436 2672.55,110.56 2673.8,113.898 2675.05,116.458 2676.3,118.285 2676.3,119.429 2678.81,119.936 2680.06,119.859 2680.06,119.253 2681.32,118.164 2683.82,116.675 2685.07,115.06 2686.33,113.219 2687.58,111.022 2688.83,108.481 2690.08,105.623 2691.34,102.625 2692.59,99.882 2693.84,96.7927 2695.1,93.8283 2696.35,90.9544 2697.6,88.4192 2698.85,86.3963 2700.11,84.7286 2701.36,83.4288 2702.61,82.5887 2703.87,82.0346 2705.12,81.9089 2706.37,83.0291 2707.62,85.8216 2708.88,90.1896 2710.13,94.636 2710.13,99.0673 2712.63,103.768 2713.89,108.532 2715.14,113.136 2716.39,117.373 2717.65,121.046 2718.9,123.981 2720.15,126.159 2721.4,127.626 2722.66,128.428 2723.91,128.616 2725.16,128.245 2726.42,127.367 2727.67,126.198 2728.92,125.224 2730.17,124.164 2730.17,123.196 2732.68,122.167 2733.93,121.283 2735.18,120.484 2736.44,119.97 2737.69,119.668 2738.94,119.743 2740.2,120.202 2741.45,120.986 2742.7,121.875 2742.7,122.655 2745.21,123.237 2746.46,123.591 2747.71,123.563 2748.97,123.131 2750.22,122.303 2751.47,121.021 2751.47,119.314 2753.98,117.219 2755.23,114.768 2756.48,111.991 2757.73,108.916 2757.73,105.565 2760.24,101.999 2761.49,98.4606 2762.75,94.8589 2764,91.1048 2765.25,87.1373 2766.5,83.1133 2766.5,79.4608 2769.01,75.9997 2770.26,73.3039 2771.51,71.4443 2772.77,70.1998 2774.02,69.5001 2774.02,69.726 2776.53,70.4134 2776.53,71.9126 2779.03,74.3134 2779.03,77.3862 2781.54,80.9661 2782.79,84.8252 2784.04,88.7197 2785.3,92.4983 2785.3,95.9798 2787.8,98.9598 2789.05,101.446 2789.05,104.263 2791.56,107.91 2791.56,112.807 2792.81,119.319 2795.32,127.693 2796.57,137.551 2797.82,147.795 2799.08,159.156 2800.33,170.277 2801.58,180.697 2801.58,190.192 2804.09,199.22 2804.09,207.766 2806.59,215.665 2807.85,222.751 2809.1,228.868 2810.35,233.978 2811.6,238.138 2812.86,241.404 2814.11,243.834 2815.36,245.676 2816.61,247.383 2816.61,248.192 2819.12,248.341 2820.37,247.887 2821.63,246.888 2821.63,245.396 2824.13,243.454 2824.13,241.104 2825.38,238.381 2827.89,235.318 2829.14,231.944 2830.39,228.284 2830.39,224.363 2831.65,220.202 2832.9,215.821 2835.41,211.237 2836.66,206.467 2837.91,201.525 2839.16,196.425 2840.42,191.18 2840.42,185.801 2842.92,180.298 2844.18,174.682 2845.43,168.96 2846.68,163.141 2847.93,157.234 2849.19,151.244 2850.44,145.179 2851.69,139.045 2852.94,132.846 2854.2,126.722 2855.45,121.068 2856.7,115.59 2857.96,110.577 2859.21,106.034 2860.46,101.807 2861.71,98.036 2862.97,95.1318 2864.22,92.7582 2865.47,91.0064 2866.73,89.695 2867.98,89.0003 2869.23,88.805 2870.48,89.0683 2870.48,89.5627 2872.99,90.1221 2872.99,90.7201 2874.24,91.5101 2876.75,93.3209 2878,96.5892 " />
</g>

<g fill="none" stroke="#000000" stroke-opacity="1" stroke-width="1" stroke-linecap="square" stroke-linejoin="bevel" transform="matrix(0.416667,0,0,0.416667,0,0)"
font-family="Ubuntu" font-size="12.2222" font-weight="400" font-style="normal" 
>
</g>

<g fill="none" stroke="#000000" stroke-opacity="1" stroke-width="1" stroke-linecap="square" stroke-linejoin="bevel" transform="matrix(0.416667,0,0,0.416667,0,0)"
font-family="Ubuntu" font-size="12.2222" font-weight="400" font-style="normal" 
>
</g>

<g fill="none" stroke="#000000" stroke-opacity="1" stroke-width="1" stroke-linecap="square" stroke-linejoin="bevel" transform="matrix(0.416667,0,0,0.416667,0,0)"
font-family="Ubuntu" font-size="12.2222" font-weight="400" font-style="normal" 
>
</g>

<g fill="none" stroke="#111111" stroke-opacity="1" stroke-width="1" stroke-linecap="square" stroke-linejoin="bevel" transform="matrix(0.416667,0,0,0.416667,0,0)"
font-family="Ubuntu" font-size="12.2222" font-weight="400" font-style="normal" 
>
<rect x="57" y="10" width="478" height="36"/>
</g>

<g fill="none" stroke="#000000" stroke-opacity="1" stroke-width="1" stroke-linecap="square" stroke-linejoin="bevel" transform="matrix(0.416667,0,0,0.416667,0,0)"
font-family="Ubuntu" font-size="12.2222" font-weight="400" font-style="normal" 
>
</g>

<g fill="none" stroke="#000000" stroke-opacity="1" stroke-width="1" stroke-linecap="square" stroke-linejoin="bevel" transform="matrix(0.416667,0,0,0.416667,0,0)"
font-family="Ubuntu" font-size="12.2222" font-weight="400" font-style="normal" 
>
</g>

<g fill="none" stroke="#000000" stroke-opacity="1" stroke-width="1" stroke-linecap="square" stroke-linejoin="bevel" transform="matrix(0.416667,0,0,0.416667,25.4167,10)"
font-family="Ubuntu" font-size="12.2222" font-weight="400" font-style="normal" 
>
</g>

<g fill="#17becf" fill-opacity="1" stroke="none" transform="matrix(0.416667,0,0,0.416667,0,0)"
font-family="Ubuntu" font-size="12.2222" font-weight="400" font-style="normal" 
>
<path vector-effect="none" fill-rule="evenodd" d="M61,24 L69,24 L69,32 L61,32 L61,24"/>
</g>

<g fill="none" stroke="#000000" stroke-opacity="1" stroke-width="1" stroke-linecap="square" stroke-linejoin="bevel" transform="matrix(0.416667,0,0,0.416667,25.4167,10)"
font-family="Ubuntu" font-size="12.2222" font-weight="400" font-style="normal" 
>
</g>

<g fill="none" stroke="#111111" stroke-opacity="1" stroke-width="1" stroke-linecap="square" stroke-linejoin="bevel" transform="matrix(0.416667,0,0,0.416667,0,0)"
font-family="Ubuntu" font-size="10" font-weight="400" font-style="normal" 
>
</g>

<g fill="none" stroke="#111111" stroke-opacity="1" stroke-width="1" stroke-linecap="square" stroke-linejoin="bevel" transform="matrix(0.416667,0,0,0.416667,0,0)"
font-family="Ubuntu" font-size="24" font-weight="400" font-style="normal" 
>
<text fill="#111111" fill-opacity="1" stroke="none" xml:space="preserve" x="70" y="37" font-family="Ubuntu" font-size="24" font-weight="400" font-style="normal" 
 >/carla/ego_vehicle/vehicle_status/velocity</text>
</g>

<g fill="none" stroke="#111111" stroke-opacity="1" stroke-width="1" stroke-linecap="square" stroke-linejoin="bevel" transform="matrix(0.416667,0,0,0.416667,0,0)"
font-family="Ubuntu" font-size="10" font-weight="400" font-style="normal" 
>
</g>

<g fill="none" stroke="#111111" stroke-opacity="1" stroke-width="1" stroke-linecap="square" stroke-linejoin="bevel" transform="matrix(0.416667,0,0,0.416667,0,0)"
font-family="Ubuntu" font-size="10" font-weight="400" font-style="normal" 
>
</g>

<g fill="none" stroke="#111111" stroke-opacity="1" stroke-width="1" stroke-linecap="square" stroke-linejoin="bevel" transform="matrix(0.416667,0,0,0.416667,0,0)"
font-family="Ubuntu" font-size="10" font-weight="400" font-style="normal" 
>
</g>

<g fill="none" stroke="#111111" stroke-opacity="1" stroke-width="1" stroke-linecap="square" stroke-linejoin="bevel" transform="matrix(0.416667,0,0,0.416667,0,0)"
font-family="Ubuntu" font-size="10" font-weight="400" font-style="normal" 
>
</g>

<g fill="none" stroke="#000000" stroke-opacity="1" stroke-width="1" stroke-linecap="square" stroke-linejoin="bevel" transform="matrix(0.416667,0,0,0.416667,0,0)"
font-family="Ubuntu" font-size="12.2222" font-weight="400" font-style="normal" 
>
</g>

<g fill="#ffffff" fill-opacity="1" stroke="#111111" stroke-opacity="1" stroke-width="1" stroke-linecap="square" stroke-linejoin="bevel" transform="matrix(0.416667,0,0,0.416667,0,0)"
font-family="Ubuntu" font-size="12.2222" font-weight="400" font-style="normal" 
>
<circle cx="10" cy="10" r="5"/>
</g>

<g fill="none" stroke="#000000" stroke-opacity="1" stroke-width="1" stroke-linecap="square" stroke-linejoin="bevel" transform="matrix(0.416667,0,0,0.416667,0,0)"
font-family="Ubuntu" font-size="12.2222" font-weight="400" font-style="normal" 
>
</g>

<g fill="none" stroke="#000000" stroke-opacity="1" stroke-width="1" stroke-linecap="square" stroke-linejoin="bevel" transform="matrix(0.416667,0,0,0.416667,0,0)"
font-family="Ubuntu" font-size="12.2222" font-weight="400" font-style="normal" 
>
</g>

<g fill="none" stroke="#000000" stroke-opacity="1" stroke-width="1" stroke-linecap="square" stroke-linejoin="bevel" transform="matrix(0.416667,0,0,0.416667,0,0)"
font-family="Ubuntu" font-size="12.2222" font-weight="400" font-style="normal" 
>
</g>

<g fill="none" stroke="#111111" stroke-opacity="1" stroke-width="1" stroke-linecap="square" stroke-linejoin="bevel" transform="matrix(0,-0.416667,0.416667,0,0,883.75)"
font-family="Ubuntu" font-size="11.1111" font-weight="400" font-style="normal" 
>
</g>

<g fill="none" stroke="#111111" stroke-opacity="1" stroke-width="1" stroke-linecap="square" stroke-linejoin="bevel" transform="matrix(0,-0.416667,0.416667,0,0,883.75)"
font-family="Ubuntu" font-size="13.3333" font-weight="700" font-style="normal" 
>
</g>

<g fill="none" stroke="#111111" stroke-opacity="1" stroke-width="1" stroke-linecap="square" stroke-linejoin="bevel" transform="matrix(0,-0.416667,0.416667,0,0,883.75)"
font-family="Ubuntu" font-size="13.3333" font-weight="700" font-style="normal" 
>
</g>

<g fill="none" stroke="#111111" stroke-opacity="1" stroke-width="1" stroke-linecap="square" stroke-linejoin="bevel" transform="matrix(0,-0.416667,0.416667,0,0,883.75)"
font-family="Ubuntu" font-size="11.1111" font-weight="400" font-style="normal" 
>
</g>

<g fill="none" stroke="#000000" stroke-opacity="1" stroke-width="1" stroke-linecap="square" stroke-linejoin="bevel" transform="matrix(0.416667,0,0,0.416667,0,0)"
font-family="Ubuntu" font-size="12.2222" font-weight="400" font-style="normal" 
>
</g>

<g fill="none" stroke="#000000" stroke-opacity="1" stroke-width="1" stroke-linecap="square" stroke-linejoin="bevel" transform="matrix(0.416667,0,0,0.416667,0,0)"
font-family="Ubuntu" font-size="11.1111" font-weight="400" font-style="normal" 
>
</g>

<g fill="none" stroke="#000000" stroke-opacity="1" stroke-width="1" stroke-linecap="square" stroke-linejoin="bevel" transform="matrix(0.416667,0,0,0.416667,0,0)"
font-family="Ubuntu" font-size="11.1111" font-weight="400" font-style="normal" 
>
</g>

<g fill="none" stroke="#111111" stroke-opacity="1" stroke-width="1" stroke-linecap="square" stroke-linejoin="bevel" transform="matrix(0.416667,0,0,0.416667,0,0)"
font-family="Ubuntu" font-size="11.1111" font-weight="400" font-style="normal" 
>
</g>

<g fill="none" stroke="#111111" stroke-opacity="1" stroke-width="1" stroke-linecap="square" stroke-linejoin="bevel" transform="matrix(0.416667,0,0,0.416667,6.57552,858.343)"
font-family="Ubuntu" font-size="11.1111" font-weight="400" font-style="normal" 
>
</g>

<g fill="none" stroke="#111111" stroke-opacity="1" stroke-width="1" stroke-linecap="square" stroke-linejoin="bevel" transform="matrix(0.416667,0,0,0.416667,6.57552,858.343)"
font-family="Ubuntu" font-size="27" font-weight="400" font-style="normal" 
>
</g>

<g fill="none" stroke="#111111" stroke-opacity="1" stroke-width="1" stroke-linecap="square" stroke-linejoin="bevel" transform="matrix(0.416667,0,0,0.416667,6.57552,858.343)"
font-family="Ubuntu" font-size="27" font-weight="400" font-style="normal" 
>
</g>

<g fill="none" stroke="#111111" stroke-opacity="1" stroke-width="1" stroke-linecap="square" stroke-linejoin="bevel" transform="matrix(0.416667,0,0,0.416667,6.57552,858.343)"
font-family="Ubuntu" font-size="27" font-weight="400" font-style="normal" 
>
<text fill="#111111" fill-opacity="1" stroke="none" xml:space="preserve" x="0" y="21" font-family="Ubuntu" font-size="27" font-weight="400" font-style="normal" 
 >0</text>
</g>

<g fill="none" stroke="#111111" stroke-opacity="1" stroke-width="1" stroke-linecap="square" stroke-linejoin="bevel" transform="matrix(0.416667,0,0,0.416667,6.57552,858.343)"
font-family="Ubuntu" font-size="27" font-weight="400" font-style="normal" 
>
</g>

<g fill="none" stroke="#111111" stroke-opacity="1" stroke-width="1" stroke-linecap="square" stroke-linejoin="bevel" transform="matrix(0.416667,0,0,0.416667,6.57552,858.343)"
font-family="Ubuntu" font-size="11.1111" font-weight="400" font-style="normal" 
>
</g>

<g fill="none" stroke="#111111" stroke-opacity="1" stroke-width="1" stroke-linecap="square" stroke-linejoin="bevel" transform="matrix(0.416667,0,0,0.416667,6.57552,858.343)"
font-family="Ubuntu" font-size="11.1111" font-weight="400" font-style="normal" 
>
</g>

<g fill="none" stroke="#111111" stroke-opacity="1" stroke-width="1" stroke-linecap="square" stroke-linejoin="bevel" transform="matrix(0.416667,0,0,0.416667,0,0)"
font-family="Ubuntu" font-size="11.1111" font-weight="400" font-style="normal" 
>
</g>

<g fill="none" stroke="#111111" stroke-opacity="1" stroke-width="1" stroke-linecap="square" stroke-linejoin="bevel" transform="matrix(0.416667,0,0,0.416667,6.57552,610.61)"
font-family="Ubuntu" font-size="11.1111" font-weight="400" font-style="normal" 
>
</g>

<g fill="none" stroke="#111111" stroke-opacity="1" stroke-width="1" stroke-linecap="square" stroke-linejoin="bevel" transform="matrix(0.416667,0,0,0.416667,6.57552,610.61)"
font-family="Ubuntu" font-size="27" font-weight="400" font-style="normal" 
>
</g>

<g fill="none" stroke="#111111" stroke-opacity="1" stroke-width="1" stroke-linecap="square" stroke-linejoin="bevel" transform="matrix(0.416667,0,0,0.416667,6.57552,610.61)"
font-family="Ubuntu" font-size="27" font-weight="400" font-style="normal" 
>
</g>

<g fill="none" stroke="#111111" stroke-opacity="1" stroke-width="1" stroke-linecap="square" stroke-linejoin="bevel" transform="matrix(0.416667,0,0,0.416667,6.57552,610.61)"
font-family="Ubuntu" font-size="27" font-weight="400" font-style="normal" 
>
<text fill="#111111" fill-opacity="1" stroke="none" xml:space="preserve" x="0" y="21" font-family="Ubuntu" font-size="27" font-weight="400" font-style="normal" 
 >5</text>
</g>

<g fill="none" stroke="#111111" stroke-opacity="1" stroke-width="1" stroke-linecap="square" stroke-linejoin="bevel" transform="matrix(0.416667,0,0,0.416667,6.57552,610.61)"
font-family="Ubuntu" font-size="27" font-weight="400" font-style="normal" 
>
</g>

<g fill="none" stroke="#111111" stroke-opacity="1" stroke-width="1" stroke-linecap="square" stroke-linejoin="bevel" transform="matrix(0.416667,0,0,0.416667,6.57552,610.61)"
font-family="Ubuntu" font-size="11.1111" font-weight="400" font-style="normal" 
>
</g>

<g fill="none" stroke="#111111" stroke-opacity="1" stroke-width="1" stroke-linecap="square" stroke-linejoin="bevel" transform="matrix(0.416667,0,0,0.416667,6.57552,610.61)"
font-family="Ubuntu" font-size="11.1111" font-weight="400" font-style="normal" 
>
</g>

<g fill="none" stroke="#111111" stroke-opacity="1" stroke-width="1" stroke-linecap="square" stroke-linejoin="bevel" transform="matrix(0.416667,0,0,0.416667,0,0)"
font-family="Ubuntu" font-size="11.1111" font-weight="400" font-style="normal" 
>
</g>

<g fill="none" stroke="#111111" stroke-opacity="1" stroke-width="1" stroke-linecap="square" stroke-linejoin="bevel" transform="matrix(0.416667,0,0,0.416667,0.234375,362.876)"
font-family="Ubuntu" font-size="11.1111" font-weight="400" font-style="normal" 
>
</g>

<g fill="none" stroke="#111111" stroke-opacity="1" stroke-width="1" stroke-linecap="square" stroke-linejoin="bevel" transform="matrix(0.416667,0,0,0.416667,0.234375,362.876)"
font-family="Ubuntu" font-size="27" font-weight="400" font-style="normal" 
>
</g>

<g fill="none" stroke="#111111" stroke-opacity="1" stroke-width="1" stroke-linecap="square" stroke-linejoin="bevel" transform="matrix(0.416667,0,0,0.416667,0.234375,362.876)"
font-family="Ubuntu" font-size="27" font-weight="400" font-style="normal" 
>
</g>

<g fill="none" stroke="#111111" stroke-opacity="1" stroke-width="1" stroke-linecap="square" stroke-linejoin="bevel" transform="matrix(0.416667,0,0,0.416667,0.234375,362.876)"
font-family="Ubuntu" font-size="27" font-weight="400" font-style="normal" 
>
<text fill="#111111" fill-opacity="1" stroke="none" xml:space="preserve" x="0" y="21" font-family="Ubuntu" font-size="27" font-weight="400" font-style="normal" 
 >10</text>
</g>

<g fill="none" stroke="#111111" stroke-opacity="1" stroke-width="1" stroke-linecap="square" stroke-linejoin="bevel" transform="matrix(0.416667,0,0,0.416667,0.234375,362.876)"
font-family="Ubuntu" font-size="27" font-weight="400" font-style="normal" 
>
</g>

<g fill="none" stroke="#111111" stroke-opacity="1" stroke-width="1" stroke-linecap="square" stroke-linejoin="bevel" transform="matrix(0.416667,0,0,0.416667,0.234375,362.876)"
font-family="Ubuntu" font-size="11.1111" font-weight="400" font-style="normal" 
>
</g>

<g fill="none" stroke="#111111" stroke-opacity="1" stroke-width="1" stroke-linecap="square" stroke-linejoin="bevel" transform="matrix(0.416667,0,0,0.416667,0.234375,362.876)"
font-family="Ubuntu" font-size="11.1111" font-weight="400" font-style="normal" 
>
</g>

<g fill="none" stroke="#111111" stroke-opacity="1" stroke-width="1" stroke-linecap="square" stroke-linejoin="bevel" transform="matrix(0.416667,0,0,0.416667,0,0)"
font-family="Ubuntu" font-size="11.1111" font-weight="400" font-style="normal" 
>
</g>

<g fill="none" stroke="#111111" stroke-opacity="1" stroke-width="1" stroke-linecap="square" stroke-linejoin="bevel" transform="matrix(0.416667,0,0,0.416667,0.234375,115.142)"
font-family="Ubuntu" font-size="11.1111" font-weight="400" font-style="normal" 
>
</g>

<g fill="none" stroke="#111111" stroke-opacity="1" stroke-width="1" stroke-linecap="square" stroke-linejoin="bevel" transform="matrix(0.416667,0,0,0.416667,0.234375,115.142)"
font-family="Ubuntu" font-size="27" font-weight="400" font-style="normal" 
>
</g>

<g fill="none" stroke="#111111" stroke-opacity="1" stroke-width="1" stroke-linecap="square" stroke-linejoin="bevel" transform="matrix(0.416667,0,0,0.416667,0.234375,115.142)"
font-family="Ubuntu" font-size="27" font-weight="400" font-style="normal" 
>
</g>

<g fill="none" stroke="#111111" stroke-opacity="1" stroke-width="1" stroke-linecap="square" stroke-linejoin="bevel" transform="matrix(0.416667,0,0,0.416667,0.234375,115.142)"
font-family="Ubuntu" font-size="27" font-weight="400" font-style="normal" 
>
<text fill="#111111" fill-opacity="1" stroke="none" xml:space="preserve" x="0" y="21" font-family="Ubuntu" font-size="27" font-weight="400" font-style="normal" 
 >15</text>
</g>

<g fill="none" stroke="#111111" stroke-opacity="1" stroke-width="1" stroke-linecap="square" stroke-linejoin="bevel" transform="matrix(0.416667,0,0,0.416667,0.234375,115.142)"
font-family="Ubuntu" font-size="27" font-weight="400" font-style="normal" 
>
</g>

<g fill="none" stroke="#111111" stroke-opacity="1" stroke-width="1" stroke-linecap="square" stroke-linejoin="bevel" transform="matrix(0.416667,0,0,0.416667,0.234375,115.142)"
font-family="Ubuntu" font-size="11.1111" font-weight="400" font-style="normal" 
>
</g>

<g fill="none" stroke="#111111" stroke-opacity="1" stroke-width="1" stroke-linecap="square" stroke-linejoin="bevel" transform="matrix(0.416667,0,0,0.416667,0.234375,115.142)"
font-family="Ubuntu" font-size="11.1111" font-weight="400" font-style="normal" 
>
</g>

<g fill="none" stroke="#111111" stroke-opacity="1" stroke-width="1" stroke-linecap="square" stroke-linejoin="bevel" transform="matrix(0.416667,0,0,0.416667,0,0)"
font-family="Ubuntu" font-size="11.1111" font-weight="400" font-style="normal" 
>
</g>

<g fill="none" stroke="#000000" stroke-opacity="1" stroke-width="1" stroke-linecap="square" stroke-linejoin="bevel" transform="matrix(0.416667,0,0,0.416667,0,0)"
font-family="Ubuntu" font-size="11.1111" font-weight="400" font-style="normal" 
>
</g>

<g fill="none" stroke="#111111" stroke-opacity="1" stroke-width="1" stroke-linecap="butt" stroke-linejoin="bevel" transform="matrix(0.416667,0,0,0.416667,0,0)"
font-family="Ubuntu" font-size="11.1111" font-weight="400" font-style="normal" 
>
<polyline fill="none" vector-effect="non-scaling-stroke" points="44.5,1951.61 38.1,1951.61 " />
<polyline fill="none" vector-effect="non-scaling-stroke" points="44.5,1832.7 38.1,1832.7 " />
<polyline fill="none" vector-effect="non-scaling-stroke" points="44.5,1713.79 38.1,1713.79 " />
<polyline fill="none" vector-effect="non-scaling-stroke" points="44.5,1594.88 38.1,1594.88 " />
<polyline fill="none" vector-effect="non-scaling-stroke" points="44.5,1357.05 38.1,1357.05 " />
<polyline fill="none" vector-effect="non-scaling-stroke" points="44.5,1238.14 38.1,1238.14 " />
<polyline fill="none" vector-effect="non-scaling-stroke" points="44.5,1119.23 38.1,1119.23 " />
<polyline fill="none" vector-effect="non-scaling-stroke" points="44.5,1000.31 38.1,1000.31 " />
<polyline fill="none" vector-effect="non-scaling-stroke" points="44.5,762.49 38.1,762.49 " />
<polyline fill="none" vector-effect="non-scaling-stroke" points="44.5,643.578 38.1,643.578 " />
<polyline fill="none" vector-effect="non-scaling-stroke" points="44.5,524.666 38.1,524.666 " />
<polyline fill="none" vector-effect="non-scaling-stroke" points="44.5,405.753 38.1,405.753 " />
<polyline fill="none" vector-effect="non-scaling-stroke" points="44.5,167.929 38.1,167.929 " />
<polyline fill="none" vector-effect="non-scaling-stroke" points="44.5,49.0169 38.1,49.0169 " />
<polyline fill="none" vector-effect="non-scaling-stroke" points="44.5,2070.52 34.1,2070.52 " />
<polyline fill="none" vector-effect="non-scaling-stroke" points="44.5,1475.96 34.1,1475.96 " />
<polyline fill="none" vector-effect="non-scaling-stroke" points="44.5,881.402 34.1,881.402 " />
<polyline fill="none" vector-effect="non-scaling-stroke" points="44.5,286.841 34.1,286.841 " />
</g>

<g fill="none" stroke="#000000" stroke-opacity="1" stroke-width="1" stroke-linecap="square" stroke-linejoin="bevel" transform="matrix(0.416667,0,0,0.416667,0,0)"
font-family="Ubuntu" font-size="11.1111" font-weight="400" font-style="normal" 
>
</g>

<g fill="none" stroke="#111111" stroke-opacity="1" stroke-width="1" stroke-linecap="butt" stroke-linejoin="bevel" transform="matrix(0.416667,0,0,0.416667,0,0)"
font-family="Ubuntu" font-size="11.1111" font-weight="400" font-style="normal" 
>
<polyline fill="none" vector-effect="non-scaling-stroke" points="43.8,1 43.8,2121 " />
</g>

<g fill="none" stroke="#000000" stroke-opacity="1" stroke-width="1" stroke-linecap="square" stroke-linejoin="bevel" transform="matrix(0.416667,0,0,0.416667,0,0)"
font-family="Ubuntu" font-size="11.1111" font-weight="400" font-style="normal" 
>
</g>

<g fill="none" stroke="#000000" stroke-opacity="1" stroke-width="1" stroke-linecap="square" stroke-linejoin="bevel" transform="matrix(0.416667,0,0,0.416667,0,0)"
font-family="Ubuntu" font-size="11.1111" font-weight="400" font-style="normal" 
>
</g>

<g fill="none" stroke="#000000" stroke-opacity="1" stroke-width="1" stroke-linecap="square" stroke-linejoin="bevel" transform="matrix(0.416667,0,0,0.416667,0,0)"
font-family="Ubuntu" font-size="12.2222" font-weight="400" font-style="normal" 
>
</g>

<g fill="none" stroke="#111111" stroke-opacity="1" stroke-width="1" stroke-linecap="square" stroke-linejoin="bevel" transform="matrix(0.416667,0,0,0.416667,16.6667,900.417)"
font-family="Ubuntu" font-size="11.1111" font-weight="400" font-style="normal" 
>
</g>

<g fill="none" stroke="#111111" stroke-opacity="1" stroke-width="1" stroke-linecap="square" stroke-linejoin="bevel" transform="matrix(0.416667,0,0,0.416667,16.6667,900.417)"
font-family="Ubuntu" font-size="13.3333" font-weight="700" font-style="normal" 
>
</g>

<g fill="none" stroke="#111111" stroke-opacity="1" stroke-width="1" stroke-linecap="square" stroke-linejoin="bevel" transform="matrix(0.416667,0,0,0.416667,16.6667,900.417)"
font-family="Ubuntu" font-size="13.3333" font-weight="700" font-style="normal" 
>
</g>

<g fill="none" stroke="#111111" stroke-opacity="1" stroke-width="1" stroke-linecap="square" stroke-linejoin="bevel" transform="matrix(0.416667,0,0,0.416667,16.6667,900.417)"
font-family="Ubuntu" font-size="11.1111" font-weight="400" font-style="normal" 
>
</g>

<g fill="none" stroke="#000000" stroke-opacity="1" stroke-width="1" stroke-linecap="square" stroke-linejoin="bevel" transform="matrix(0.416667,0,0,0.416667,0,0)"
font-family="Ubuntu" font-size="12.2222" font-weight="400" font-style="normal" 
>
</g>

<g fill="none" stroke="#000000" stroke-opacity="1" stroke-width="1" stroke-linecap="square" stroke-linejoin="bevel" transform="matrix(0.416667,0,0,0.416667,0,0)"
font-family="Ubuntu" font-size="11.1111" font-weight="400" font-style="normal" 
>
</g>

<g fill="none" stroke="#000000" stroke-opacity="1" stroke-width="1" stroke-linecap="square" stroke-linejoin="bevel" transform="matrix(0.416667,0,0,0.416667,0,0)"
font-family="Ubuntu" font-size="11.1111" font-weight="400" font-style="normal" 
>
</g>

<g fill="none" stroke="#111111" stroke-opacity="1" stroke-width="1" stroke-linecap="square" stroke-linejoin="bevel" transform="matrix(0.416667,0,0,0.416667,0,0)"
font-family="Ubuntu" font-size="11.1111" font-weight="400" font-style="normal" 
>
</g>

<g fill="none" stroke="#111111" stroke-opacity="1" stroke-width="1" stroke-linecap="square" stroke-linejoin="bevel" transform="matrix(0.416667,0,0,0.416667,16.8294,890.833)"
font-family="Ubuntu" font-size="11.1111" font-weight="400" font-style="normal" 
>
</g>

<g fill="none" stroke="#111111" stroke-opacity="1" stroke-width="1" stroke-linecap="square" stroke-linejoin="bevel" transform="matrix(0.416667,0,0,0.416667,16.8294,890.833)"
font-family="Ubuntu" font-size="27" font-weight="400" font-style="normal" 
>
</g>

<g fill="none" stroke="#111111" stroke-opacity="1" stroke-width="1" stroke-linecap="square" stroke-linejoin="bevel" transform="matrix(0.416667,0,0,0.416667,16.8294,890.833)"
font-family="Ubuntu" font-size="27" font-weight="400" font-style="normal" 
>
</g>

<g fill="none" stroke="#111111" stroke-opacity="1" stroke-width="1" stroke-linecap="square" stroke-linejoin="bevel" transform="matrix(0.416667,0,0,0.416667,16.8294,890.833)"
font-family="Ubuntu" font-size="27" font-weight="400" font-style="normal" 
>
<text fill="#111111" fill-opacity="1" stroke="none" xml:space="preserve" x="0" y="21" font-family="Ubuntu" font-size="27" font-weight="400" font-style="normal" 
 >0</text>
</g>

<g fill="none" stroke="#111111" stroke-opacity="1" stroke-width="1" stroke-linecap="square" stroke-linejoin="bevel" transform="matrix(0.416667,0,0,0.416667,16.8294,890.833)"
font-family="Ubuntu" font-size="27" font-weight="400" font-style="normal" 
>
</g>

<g fill="none" stroke="#111111" stroke-opacity="1" stroke-width="1" stroke-linecap="square" stroke-linejoin="bevel" transform="matrix(0.416667,0,0,0.416667,16.8294,890.833)"
font-family="Ubuntu" font-size="11.1111" font-weight="400" font-style="normal" 
>
</g>

<g fill="none" stroke="#111111" stroke-opacity="1" stroke-width="1" stroke-linecap="square" stroke-linejoin="bevel" transform="matrix(0.416667,0,0,0.416667,16.8294,890.833)"
font-family="Ubuntu" font-size="11.1111" font-weight="400" font-style="normal" 
>
</g>

<g fill="none" stroke="#111111" stroke-opacity="1" stroke-width="1" stroke-linecap="square" stroke-linejoin="bevel" transform="matrix(0.416667,0,0,0.416667,0,0)"
font-family="Ubuntu" font-size="11.1111" font-weight="400" font-style="normal" 
>
</g>

<g fill="none" stroke="#111111" stroke-opacity="1" stroke-width="1" stroke-linecap="square" stroke-linejoin="bevel" transform="matrix(0.416667,0,0,0.416667,274.652,890.833)"
font-family="Ubuntu" font-size="11.1111" font-weight="400" font-style="normal" 
>
</g>

<g fill="none" stroke="#111111" stroke-opacity="1" stroke-width="1" stroke-linecap="square" stroke-linejoin="bevel" transform="matrix(0.416667,0,0,0.416667,274.652,890.833)"
font-family="Ubuntu" font-size="27" font-weight="400" font-style="normal" 
>
</g>

<g fill="none" stroke="#111111" stroke-opacity="1" stroke-width="1" stroke-linecap="square" stroke-linejoin="bevel" transform="matrix(0.416667,0,0,0.416667,274.652,890.833)"
font-family="Ubuntu" font-size="27" font-weight="400" font-style="normal" 
>
</g>

<g fill="none" stroke="#111111" stroke-opacity="1" stroke-width="1" stroke-linecap="square" stroke-linejoin="bevel" transform="matrix(0.416667,0,0,0.416667,274.652,890.833)"
font-family="Ubuntu" font-size="27" font-weight="400" font-style="normal" 
>
<text fill="#111111" fill-opacity="1" stroke="none" xml:space="preserve" x="0" y="21" font-family="Ubuntu" font-size="27" font-weight="400" font-style="normal" 
 >10</text>
</g>

<g fill="none" stroke="#111111" stroke-opacity="1" stroke-width="1" stroke-linecap="square" stroke-linejoin="bevel" transform="matrix(0.416667,0,0,0.416667,274.652,890.833)"
font-family="Ubuntu" font-size="27" font-weight="400" font-style="normal" 
>
</g>

<g fill="none" stroke="#111111" stroke-opacity="1" stroke-width="1" stroke-linecap="square" stroke-linejoin="bevel" transform="matrix(0.416667,0,0,0.416667,274.652,890.833)"
font-family="Ubuntu" font-size="11.1111" font-weight="400" font-style="normal" 
>
</g>

<g fill="none" stroke="#111111" stroke-opacity="1" stroke-width="1" stroke-linecap="square" stroke-linejoin="bevel" transform="matrix(0.416667,0,0,0.416667,274.652,890.833)"
font-family="Ubuntu" font-size="11.1111" font-weight="400" font-style="normal" 
>
</g>

<g fill="none" stroke="#111111" stroke-opacity="1" stroke-width="1" stroke-linecap="square" stroke-linejoin="bevel" transform="matrix(0.416667,0,0,0.416667,0,0)"
font-family="Ubuntu" font-size="11.1111" font-weight="400" font-style="normal" 
>
</g>

<g fill="none" stroke="#111111" stroke-opacity="1" stroke-width="1" stroke-linecap="square" stroke-linejoin="bevel" transform="matrix(0.416667,0,0,0.416667,535.645,890.833)"
font-family="Ubuntu" font-size="11.1111" font-weight="400" font-style="normal" 
>
</g>

<g fill="none" stroke="#111111" stroke-opacity="1" stroke-width="1" stroke-linecap="square" stroke-linejoin="bevel" transform="matrix(0.416667,0,0,0.416667,535.645,890.833)"
font-family="Ubuntu" font-size="27" font-weight="400" font-style="normal" 
>
</g>

<g fill="none" stroke="#111111" stroke-opacity="1" stroke-width="1" stroke-linecap="square" stroke-linejoin="bevel" transform="matrix(0.416667,0,0,0.416667,535.645,890.833)"
font-family="Ubuntu" font-size="27" font-weight="400" font-style="normal" 
>
</g>

<g fill="none" stroke="#111111" stroke-opacity="1" stroke-width="1" stroke-linecap="square" stroke-linejoin="bevel" transform="matrix(0.416667,0,0,0.416667,535.645,890.833)"
font-family="Ubuntu" font-size="27" font-weight="400" font-style="normal" 
>
<text fill="#111111" fill-opacity="1" stroke="none" xml:space="preserve" x="0" y="21" font-family="Ubuntu" font-size="27" font-weight="400" font-style="normal" 
 >20</text>
</g>

<g fill="none" stroke="#111111" stroke-opacity="1" stroke-width="1" stroke-linecap="square" stroke-linejoin="bevel" transform="matrix(0.416667,0,0,0.416667,535.645,890.833)"
font-family="Ubuntu" font-size="27" font-weight="400" font-style="normal" 
>
</g>

<g fill="none" stroke="#111111" stroke-opacity="1" stroke-width="1" stroke-linecap="square" stroke-linejoin="bevel" transform="matrix(0.416667,0,0,0.416667,535.645,890.833)"
font-family="Ubuntu" font-size="11.1111" font-weight="400" font-style="normal" 
>
</g>

<g fill="none" stroke="#111111" stroke-opacity="1" stroke-width="1" stroke-linecap="square" stroke-linejoin="bevel" transform="matrix(0.416667,0,0,0.416667,535.645,890.833)"
font-family="Ubuntu" font-size="11.1111" font-weight="400" font-style="normal" 
>
</g>

<g fill="none" stroke="#111111" stroke-opacity="1" stroke-width="1" stroke-linecap="square" stroke-linejoin="bevel" transform="matrix(0.416667,0,0,0.416667,0,0)"
font-family="Ubuntu" font-size="11.1111" font-weight="400" font-style="normal" 
>
</g>

<g fill="none" stroke="#111111" stroke-opacity="1" stroke-width="1" stroke-linecap="square" stroke-linejoin="bevel" transform="matrix(0.416667,0,0,0.416667,796.638,890.833)"
font-family="Ubuntu" font-size="11.1111" font-weight="400" font-style="normal" 
>
</g>

<g fill="none" stroke="#111111" stroke-opacity="1" stroke-width="1" stroke-linecap="square" stroke-linejoin="bevel" transform="matrix(0.416667,0,0,0.416667,796.638,890.833)"
font-family="Ubuntu" font-size="27" font-weight="400" font-style="normal" 
>
</g>

<g fill="none" stroke="#111111" stroke-opacity="1" stroke-width="1" stroke-linecap="square" stroke-linejoin="bevel" transform="matrix(0.416667,0,0,0.416667,796.638,890.833)"
font-family="Ubuntu" font-size="27" font-weight="400" font-style="normal" 
>
</g>

<g fill="none" stroke="#111111" stroke-opacity="1" stroke-width="1" stroke-linecap="square" stroke-linejoin="bevel" transform="matrix(0.416667,0,0,0.416667,796.638,890.833)"
font-family="Ubuntu" font-size="27" font-weight="400" font-style="normal" 
>
<text fill="#111111" fill-opacity="1" stroke="none" xml:space="preserve" x="0" y="21" font-family="Ubuntu" font-size="27" font-weight="400" font-style="normal" 
 >30</text>
</g>

<g fill="none" stroke="#111111" stroke-opacity="1" stroke-width="1" stroke-linecap="square" stroke-linejoin="bevel" transform="matrix(0.416667,0,0,0.416667,796.638,890.833)"
font-family="Ubuntu" font-size="27" font-weight="400" font-style="normal" 
>
</g>

<g fill="none" stroke="#111111" stroke-opacity="1" stroke-width="1" stroke-linecap="square" stroke-linejoin="bevel" transform="matrix(0.416667,0,0,0.416667,796.638,890.833)"
font-family="Ubuntu" font-size="11.1111" font-weight="400" font-style="normal" 
>
</g>

<g fill="none" stroke="#111111" stroke-opacity="1" stroke-width="1" stroke-linecap="square" stroke-linejoin="bevel" transform="matrix(0.416667,0,0,0.416667,796.638,890.833)"
font-family="Ubuntu" font-size="11.1111" font-weight="400" font-style="normal" 
>
</g>

<g fill="none" stroke="#111111" stroke-opacity="1" stroke-width="1" stroke-linecap="square" stroke-linejoin="bevel" transform="matrix(0.416667,0,0,0.416667,0,0)"
font-family="Ubuntu" font-size="11.1111" font-weight="400" font-style="normal" 
>
</g>

<g fill="none" stroke="#111111" stroke-opacity="1" stroke-width="1" stroke-linecap="square" stroke-linejoin="bevel" transform="matrix(0.416667,0,0,0.416667,1057.63,890.833)"
font-family="Ubuntu" font-size="11.1111" font-weight="400" font-style="normal" 
>
</g>

<g fill="none" stroke="#111111" stroke-opacity="1" stroke-width="1" stroke-linecap="square" stroke-linejoin="bevel" transform="matrix(0.416667,0,0,0.416667,1057.63,890.833)"
font-family="Ubuntu" font-size="27" font-weight="400" font-style="normal" 
>
</g>

<g fill="none" stroke="#111111" stroke-opacity="1" stroke-width="1" stroke-linecap="square" stroke-linejoin="bevel" transform="matrix(0.416667,0,0,0.416667,1057.63,890.833)"
font-family="Ubuntu" font-size="27" font-weight="400" font-style="normal" 
>
</g>

<g fill="none" stroke="#111111" stroke-opacity="1" stroke-width="1" stroke-linecap="square" stroke-linejoin="bevel" transform="matrix(0.416667,0,0,0.416667,1057.63,890.833)"
font-family="Ubuntu" font-size="27" font-weight="400" font-style="normal" 
>
<text fill="#111111" fill-opacity="1" stroke="none" xml:space="preserve" x="0" y="21" font-family="Ubuntu" font-size="27" font-weight="400" font-style="normal" 
 >40</text>
</g>

<g fill="none" stroke="#111111" stroke-opacity="1" stroke-width="1" stroke-linecap="square" stroke-linejoin="bevel" transform="matrix(0.416667,0,0,0.416667,1057.63,890.833)"
font-family="Ubuntu" font-size="27" font-weight="400" font-style="normal" 
>
</g>

<g fill="none" stroke="#111111" stroke-opacity="1" stroke-width="1" stroke-linecap="square" stroke-linejoin="bevel" transform="matrix(0.416667,0,0,0.416667,1057.63,890.833)"
font-family="Ubuntu" font-size="11.1111" font-weight="400" font-style="normal" 
>
</g>

<g fill="none" stroke="#111111" stroke-opacity="1" stroke-width="1" stroke-linecap="square" stroke-linejoin="bevel" transform="matrix(0.416667,0,0,0.416667,1057.63,890.833)"
font-family="Ubuntu" font-size="11.1111" font-weight="400" font-style="normal" 
>
</g>

<g fill="none" stroke="#111111" stroke-opacity="1" stroke-width="1" stroke-linecap="square" stroke-linejoin="bevel" transform="matrix(0.416667,0,0,0.416667,0,0)"
font-family="Ubuntu" font-size="11.1111" font-weight="400" font-style="normal" 
>
</g>

<g fill="none" stroke="#000000" stroke-opacity="1" stroke-width="1" stroke-linecap="square" stroke-linejoin="bevel" transform="matrix(0.416667,0,0,0.416667,0,0)"
font-family="Ubuntu" font-size="11.1111" font-weight="400" font-style="normal" 
>
</g>

<g fill="none" stroke="#111111" stroke-opacity="1" stroke-width="1" stroke-linecap="butt" stroke-linejoin="bevel" transform="matrix(0.416667,0,0,0.416667,0,0)"
font-family="Ubuntu" font-size="11.1111" font-weight="400" font-style="normal" 
>
<polyline fill="none" vector-effect="non-scaling-stroke" points="173.277,2124.5 173.277,2130.9 " />
<polyline fill="none" vector-effect="non-scaling-stroke" points="298.553,2124.5 298.553,2130.9 " />
<polyline fill="none" vector-effect="non-scaling-stroke" points="423.83,2124.5 423.83,2130.9 " />
<polyline fill="none" vector-effect="non-scaling-stroke" points="549.107,2124.5 549.107,2130.9 " />
<polyline fill="none" vector-effect="non-scaling-stroke" points="799.66,2124.5 799.66,2130.9 " />
<polyline fill="none" vector-effect="non-scaling-stroke" points="924.937,2124.5 924.937,2130.9 " />
<polyline fill="none" vector-effect="non-scaling-stroke" points="1050.21,2124.5 1050.21,2130.9 " />
<polyline fill="none" vector-effect="non-scaling-stroke" points="1175.49,2124.5 1175.49,2130.9 " />
<polyline fill="none" vector-effect="non-scaling-stroke" points="1426.04,2124.5 1426.04,2130.9 " />
<polyline fill="none" vector-effect="non-scaling-stroke" points="1551.32,2124.5 1551.32,2130.9 " />
<polyline fill="none" vector-effect="non-scaling-stroke" points="1676.6,2124.5 1676.6,2130.9 " />
<polyline fill="none" vector-effect="non-scaling-stroke" points="1801.87,2124.5 1801.87,2130.9 " />
<polyline fill="none" vector-effect="non-scaling-stroke" points="2052.43,2124.5 2052.43,2130.9 " />
<polyline fill="none" vector-effect="non-scaling-stroke" points="2177.7,2124.5 2177.7,2130.9 " />
<polyline fill="none" vector-effect="non-scaling-stroke" points="2302.98,2124.5 2302.98,2130.9 " />
<polyline fill="none" vector-effect="non-scaling-stroke" points="2428.26,2124.5 2428.26,2130.9 " />
<polyline fill="none" vector-effect="non-scaling-stroke" points="2678.81,2124.5 2678.81,2130.9 " />
<polyline fill="none" vector-effect="non-scaling-stroke" points="2804.09,2124.5 2804.09,2130.9 " />
<polyline fill="none" vector-effect="non-scaling-stroke" points="48,2124.5 48,2134.9 " />
<polyline fill="none" vector-effect="non-scaling-stroke" points="674.383,2124.5 674.383,2134.9 " />
<polyline fill="none" vector-effect="non-scaling-stroke" points="1300.77,2124.5 1300.77,2134.9 " />
<polyline fill="none" vector-effect="non-scaling-stroke" points="1927.15,2124.5 1927.15,2134.9 " />
<polyline fill="none" vector-effect="non-scaling-stroke" points="2553.53,2124.5 2553.53,2134.9 " />
</g>

<g fill="none" stroke="#000000" stroke-opacity="1" stroke-width="1" stroke-linecap="square" stroke-linejoin="bevel" transform="matrix(0.416667,0,0,0.416667,0,0)"
font-family="Ubuntu" font-size="11.1111" font-weight="400" font-style="normal" 
>
</g>

<g fill="none" stroke="#111111" stroke-opacity="1" stroke-width="1" stroke-linecap="butt" stroke-linejoin="bevel" transform="matrix(0.416667,0,0,0.416667,0,0)"
font-family="Ubuntu" font-size="11.1111" font-weight="400" font-style="normal" 
>
<polyline fill="none" vector-effect="non-scaling-stroke" points="48,2125.2 2878,2125.2 " />
</g>

<g fill="none" stroke="#000000" stroke-opacity="1" stroke-width="1" stroke-linecap="square" stroke-linejoin="bevel" transform="matrix(0.416667,0,0,0.416667,0,0)"
font-family="Ubuntu" font-size="11.1111" font-weight="400" font-style="normal" 
>
</g>

<g fill="none" stroke="#000000" stroke-opacity="1" stroke-width="1" stroke-linecap="square" stroke-linejoin="bevel" transform="matrix(0.416667,0,0,0.416667,0,0)"
font-family="Ubuntu" font-size="11.1111" font-weight="400" font-style="normal" 
>
</g>

<g fill="none" stroke="#000000" stroke-opacity="1" stroke-width="1" stroke-linecap="square" stroke-linejoin="bevel" transform="matrix(0.416667,0,0,0.416667,0,0)"
font-family="Ubuntu" font-size="12.2222" font-weight="400" font-style="normal" 
>
</g>

<g fill="none" stroke="#000000" stroke-opacity="1" stroke-width="1" stroke-linecap="square" stroke-linejoin="bevel" transform="matrix(1,0,0,1,0,0)"
font-family="Ubuntu" font-size="12.2222" font-weight="400" font-style="normal" 
>
</g>
</g>
</svg>
